<svg width="615" height="615" viewBox="0 0 615 615" fill="none" xmlns="http://www.w3.org/2000/svg">
<mask id="mask0_98317_35975" style="mask-type:alpha" maskUnits="userSpaceOnUse" x="0" y="0" width="615" height="615">
<rect width="614.287" height="614.296" rx="307.144" transform="matrix(-1 0 0 1 614.843 0.175781)" fill="#FF4A60"/>
</mask>
<g mask="url(#mask0_98317_35975)">
<path d="M448.654 527.79L465.384 581.533C465.384 581.533 341.021 648.19 339.794 645.834C338.566 643.477 305.658 539.933 305.658 539.933L448.654 527.79Z" fill="#FFC224" stroke="#0B0B0B" stroke-width="3" stroke-linecap="round" stroke-linejoin="round"/>
<path d="M426.689 540.681L440.304 586.353" stroke="#0B0B0B" stroke-width="3" stroke-linecap="round" stroke-linejoin="round"/>
<path d="M258.814 251.664C258.814 251.664 334.908 285.626 364.195 333.118C413.884 413.701 420.37 529.884 420.37 529.884L376.735 533.108C376.735 533.108 384.014 631.547 382.587 641.9C381.16 652.254 117.71 659.214 117.71 659.214C117.71 659.214 101.39 441.131 111.492 400.917C121.595 360.703 167.89 253.213 258.814 251.664Z" fill="#FFC224" stroke="#0B0B0B" stroke-width="3" stroke-linecap="round" stroke-linejoin="round"/>
<path d="M358.147 395.246L371.793 533.105" stroke="#0B0B0B" stroke-width="3" stroke-linecap="round" stroke-linejoin="round"/>
<path d="M542.893 531.786C548.235 531.26 553.477 529.98 558.46 527.982C567.139 524.592 571.943 517.768 570.858 511.771C569.773 505.773 549.317 513.947 545.598 518.11C541.879 522.273 536.465 528.958 542.893 531.786Z" fill="white" stroke="#0B0B0B" stroke-width="3.14405" stroke-linecap="round" stroke-linejoin="round"/>
<path d="M311.181 537.546L437.691 528.667" stroke="#0B0B0B" stroke-width="10.1704" stroke-linecap="round" stroke-linejoin="round"/>
<g filter="url(#filter0_d_98317_35975)">
<path d="M443.518 533.569L584.605 517.277C586.392 517.072 588.085 516.368 589.49 515.245C590.895 514.122 591.955 512.625 592.548 510.927L642.298 367.633C642.801 366.173 642.941 364.612 642.707 363.085C642.473 361.558 641.871 360.111 640.954 358.869C640.037 357.626 638.831 356.625 637.441 355.951C636.051 355.277 634.519 354.952 632.975 355.002L489.352 359.134C487.347 359.19 485.411 359.875 483.816 361.092C482.222 362.308 481.05 363.996 480.467 365.914L433.253 521.355C432.798 522.871 432.727 524.476 433.047 526.026C433.368 527.577 434.068 529.023 435.087 530.234C436.105 531.446 437.409 532.385 438.881 532.968C440.353 533.55 441.946 533.757 443.518 533.569V533.569Z" fill="#0B0B0B"/>
<path d="M584.412 515.592L584.41 515.593L443.323 531.886L443.518 533.569L443.317 531.886C442.025 532.04 440.715 531.87 439.504 531.391C438.294 530.913 437.222 530.14 436.384 529.144C435.547 528.147 434.971 526.958 434.707 525.684C434.444 524.41 434.502 523.09 434.875 521.844C434.876 521.843 434.876 521.843 434.876 521.842L482.089 366.408C482.089 366.407 482.089 366.407 482.089 366.407C482.569 364.828 483.533 363.44 484.845 362.439C486.157 361.438 487.75 360.875 489.4 360.829L489.401 360.829L633.024 356.696L633.03 356.696C634.299 356.655 635.559 356.922 636.702 357.476C637.845 358.03 638.836 358.853 639.59 359.875C640.344 360.897 640.839 362.087 641.031 363.342C641.224 364.597 641.108 365.881 640.695 367.081L590.947 510.368C590.459 511.765 589.588 512.997 588.432 513.921C587.276 514.845 585.882 515.424 584.412 515.592Z" stroke="#0B0B0B" stroke-width="3.39012"/>
</g>
<path d="M566.867 448.502C561.863 457.124 551.893 460.707 544.601 456.53C537.309 452.354 535.448 441.953 540.455 433.325C545.462 424.697 555.426 421.12 562.721 425.297C570.017 429.474 571.871 439.878 566.867 448.502Z" stroke="white" stroke-width="3.14405" stroke-linecap="round" stroke-linejoin="round"/>
<path d="M590.582 516.586L434.605 534.612L309.707 542.694" stroke="#0B0B0B" stroke-width="3.14405" stroke-linecap="round" stroke-linejoin="round"/>
<path d="M554.3 483.449C546.164 480.903 545.754 493.094 545.754 493.094V493.132C544.249 488.009 540.95 487.528 538.669 488.026C533.163 489.233 530.837 498.484 530.837 498.484L530.498 499.502C530.409 498.768 530.167 498.062 529.787 497.429C529.408 496.795 528.899 496.248 528.295 495.824C527.69 495.399 527.004 495.107 526.279 494.965C525.554 494.823 524.807 494.835 524.088 494.999C514.324 495.925 503.632 527.063 503.632 527.063L504.099 524.883L451.502 532.62C450.691 536.467 454.553 545.353 456.248 547.926C457.028 549.099 468.056 545.76 468.676 546.855C472.832 554.208 485.288 555.266 491.78 554.679C500.719 553.869 512.148 545.458 517.206 541.193C521.039 541.908 525.002 541.365 528.502 539.644C530.177 538.691 531.723 537.526 533.102 536.179V536.179C547.229 533.41 556.86 520.907 558.019 514.893C558.019 514.906 562.437 485.992 554.3 483.449Z" fill="white"/>
<path d="M504.066 525.845L450.396 532.775L455.787 548.21L467.466 546.281C467.466 546.281 470.663 548.81 471.68 549.671C477.104 554.217 486.237 555.204 491.78 554.702C502.008 553.776 515.487 542.904 518.975 539.667C522.464 536.429 526.413 524.862 526.413 524.862C531.525 506.82 533.851 494.097 524.088 495.029C514.324 495.961 503.632 527.093 503.632 527.093" stroke="#0B0B0B" stroke-width="3" stroke-linecap="round" stroke-linejoin="round"/>
<path d="M530.824 498.485C530.824 498.485 533.15 489.233 538.655 488.026C542.479 487.192 549.188 488.999 545.469 511.015C541.75 533.03 528.502 539.658 528.502 539.658C525.002 541.379 521.04 541.922 517.206 541.207" stroke="#0B0B0B" stroke-width="3" stroke-linecap="round" stroke-linejoin="round"/>
<path d="M545.753 493.094C545.753 493.094 546.167 480.89 554.3 483.449C562.433 486.009 558.029 514.906 558.029 514.906C556.87 520.92 547.238 533.423 533.112 536.193" stroke="#0B0B0B" stroke-width="3" stroke-linecap="round" stroke-linejoin="round"/>
<path d="M377.135 465.073C377.135 465.073 396.605 458.706 403.331 462.947C410.057 467.188 403.67 473.528 396.249 475.291C388.828 477.054 374.427 469.88 377.135 465.073Z" fill="white" stroke="#0B0B0B" stroke-width="3" stroke-linecap="round" stroke-linejoin="round"/>
<path d="M413.104 478.674C399.829 467.053 366.378 450.143 346.733 457.411C327.087 464.679 266.556 491.885 261.247 501.1C255.938 510.314 257.518 554.762 284.398 547.015C311.279 539.269 343.014 508.266 347.794 508.792C352.476 509.31 386.675 512.351 387.082 501.774H387.102C394.533 505.652 404.873 505.347 406.995 501.774C407.443 501.086 407.747 500.315 407.887 499.506L407.931 499.537C412.877 501.232 416.278 498.96 416.637 495.353L417.19 495.397C421.322 493.821 426.377 490.299 413.104 478.674Z" fill="white"/>
<path d="M341.424 489.421C341.424 489.421 386.024 489.709 387.085 501.1C388.146 512.49 352.574 509.321 347.794 508.792C343.014 508.263 311.265 539.266 284.398 547.015C257.532 554.765 255.921 510.317 261.247 501.1C266.573 491.882 327.087 464.679 346.733 457.411C366.378 450.143 399.829 467.053 413.104 478.674C426.38 490.295 421.322 493.821 417.189 495.408" stroke="#0B0B0B" stroke-width="3" stroke-linecap="round" stroke-linejoin="round"/>
<path d="M345.671 477.885C345.671 477.885 371.436 479.095 390.272 487.075C409.107 495.056 409.121 498.215 406.995 501.788C404.87 505.362 394.533 505.663 387.102 501.788" stroke="#0B0B0B" stroke-width="3" stroke-linecap="round" stroke-linejoin="round"/>
<path d="M358.147 463.866C358.147 463.866 398.778 477.562 409.918 484.885C421.057 492.208 417.094 502.717 407.931 499.547" stroke="#0B0B0B" stroke-width="3" stroke-linecap="round" stroke-linejoin="round"/>
<path d="M269.882 463.187L111.109 496.526L138.094 490.861L145.837 409.654L209.053 265.35C209.053 265.35 91.2938 290.522 36.8959 452.963C-18.8241 619.363 74.9737 640.962 123.927 645.756C172.88 650.549 303.451 568.19 303.451 568.19L269.882 463.187Z" fill="#FFC224"/>
<path d="M209.053 265.35C209.053 265.35 91.2938 290.522 36.8959 452.963C-18.8241 619.363 74.9737 640.962 123.927 645.759C172.88 650.556 303.458 568.173 303.458 568.173L269.896 463.17L111.123 496.509" stroke="#0B0B0B" stroke-width="3" stroke-linecap="round" stroke-linejoin="round"/>
<path d="M247.375 478.87L275.595 572.831" stroke="#0B0B0B" stroke-width="3" stroke-linecap="round" stroke-linejoin="round"/>
<path d="M138.094 490.857L145.837 409.654" stroke="#0B0B0B" stroke-width="3" stroke-linecap="round" stroke-linejoin="round"/>
<path d="M216.524 76.9175C192.489 88.8726 178.326 117.333 181.334 147.578C185.475 189.305 221.827 220.316 221.827 220.316L224.367 150.899L228.364 148.773L216.524 76.9175Z" fill="#0B0B0B"/>
<path d="M207.133 161.121C212.183 161.099 217.114 162.658 221.233 165.58L221.18 151.075C221.093 128.081 237.57 109.208 257.745 109.136L288.114 109.025C308.313 108.948 324.905 127.7 324.992 150.694L325.165 197.782C325.247 220.776 308.775 239.649 288.601 239.721L271.035 239.784L271.127 265.155C271.131 270.165 269.151 274.974 265.621 278.53C262.092 282.086 257.298 284.1 252.288 284.133L240.236 284.182C235.224 284.186 230.415 282.206 226.858 278.675C223.301 275.144 221.286 270.35 221.253 265.338L221.147 236.675V235.074L221.04 206.411C221.04 205.832 221.089 205.268 221.142 204.704C218.063 206.919 214.504 208.374 210.755 208.951C207.006 209.528 203.174 209.21 199.572 208.024C195.969 206.837 192.698 204.816 190.026 202.125C187.354 199.433 185.356 196.148 184.195 192.537C183.035 188.926 182.744 185.092 183.348 181.348C183.952 177.603 185.432 174.055 187.669 170.991C189.905 167.928 192.834 165.437 196.217 163.722C199.6 162.007 203.34 161.116 207.133 161.121V161.121Z" fill="white" stroke="#0B0B0B" stroke-width="3" stroke-linecap="round" stroke-linejoin="round"/>
<path d="M218.731 188.3C218.965 186.233 218.707 184.14 217.978 182.191C217.249 180.243 216.071 178.494 214.538 177.088C213.005 175.681 211.161 174.657 209.157 174.098C207.153 173.539 205.046 173.462 203.006 173.872" stroke="#0B0B0B" stroke-width="3" stroke-linecap="round" stroke-linejoin="round"/>
<path d="M206.887 94.5864C207.913 93.5403 209.013 92.5858 210.092 91.612L206.347 83.417C218.036 74.104 232.906 69.7367 247.775 71.2498C325.17 44.0713 353.987 117.6 326.505 137.494C318.411 143.352 278.169 146.321 262.415 130.615C260.988 134.839 259.312 138.974 257.397 143C252.21 154.14 240.804 162.012 231.848 166.736L238.341 197.366C238.341 197.366 275.865 188.26 298.922 188.434C321.979 188.607 325.184 197.766 325.184 197.766C325.184 197.766 324.987 229.332 301.173 237.122C280.97 243.731 271.054 239.773 271.054 239.773C271.054 239.773 245.553 233.188 233.304 219.792C228.961 215.314 225.358 210.174 222.631 204.564L221.556 167.628C220.659 166.934 220.004 166.457 219.184 165.888C215.84 163.121 211.724 161.453 207.398 161.111C201.776 161.196 196.334 163.108 191.895 166.558C185.107 153.523 184.278 117.557 206.887 94.5864Z" fill="#0B0B0B"/>
<path d="M292.515 184.79L304.635 177.342L293.947 159.342" stroke="#0B0B0B" stroke-width="3" stroke-linecap="round" stroke-linejoin="round"/>
<path d="M259.918 156.83L271.656 152.087" stroke="#0B0B0B" stroke-width="3" stroke-linecap="round" stroke-linejoin="round"/>
<path d="M310.086 152.636L321.347 154.256" stroke="#0B0B0B" stroke-width="3" stroke-linecap="round" stroke-linejoin="round"/>
<path d="M265.337 167.084C265.337 168.154 265.655 169.201 266.249 170.091C266.844 170.981 267.689 171.675 268.678 172.085C269.667 172.495 270.755 172.602 271.805 172.394C272.855 172.185 273.82 171.67 274.577 170.914C275.334 170.157 275.85 169.193 276.06 168.143C276.269 167.093 276.163 166.005 275.754 165.016C275.345 164.026 274.652 163.181 273.762 162.585C272.872 161.99 271.826 161.671 270.756 161.67C269.319 161.67 267.942 162.241 266.926 163.256C265.91 164.271 265.339 165.648 265.337 167.084V167.084Z" fill="#0B0B0B"/>
<path d="M315.375 170.101C312.811 170.101 310.733 168.023 310.733 165.459C310.733 162.895 312.811 160.817 315.375 160.817C317.939 160.817 320.017 162.895 320.017 165.459C320.017 168.023 317.939 170.101 315.375 170.101Z" fill="#0B0B0B"/>
<path d="M305.579 201.706C305.589 204.5 304.489 207.185 302.52 209.168C300.551 211.152 297.874 212.272 295.08 212.282C292.285 212.292 289.6 211.192 287.617 209.223C285.633 207.254 284.513 204.577 284.503 201.783L305.579 201.706Z" fill="white"/>
<path d="M207.13 246.687L284.735 246.201C294.703 246.139 302.834 254.168 302.896 264.136L302.956 273.656C303.018 283.624 294.989 291.755 285.021 291.817L207.416 292.304C197.448 292.366 189.317 284.336 189.255 274.369L189.195 264.848C189.133 254.881 197.162 246.75 207.13 246.687Z" fill="#FFC224" stroke="#0B0B0B" stroke-width="3" stroke-miterlimit="10"/>
<path d="M402.901 548.261C401.369 548.908 400.063 549.994 399.148 551.383C398.234 552.772 397.751 554.401 397.762 556.064C397.773 557.727 398.277 559.349 399.21 560.726C400.143 562.103 401.464 563.172 403.005 563.798C404.545 564.424 406.237 564.579 407.866 564.244C409.495 563.909 410.988 563.098 412.156 561.914C413.324 560.73 414.115 559.227 414.428 557.594C414.742 555.96 414.564 554.271 413.917 552.739C413.05 550.684 411.403 549.058 409.337 548.218C407.271 547.379 404.956 547.394 402.901 548.261Z" fill="#FF4A60"/>
<path d="M194.235 515.349C192.701 515.994 191.393 517.079 190.476 518.467C189.559 519.855 189.074 521.484 189.082 523.147C189.09 524.811 189.592 526.435 190.523 527.814C191.454 529.193 192.772 530.264 194.312 530.894C195.852 531.524 197.545 531.682 199.175 531.351C200.805 531.019 202.3 530.211 203.472 529.03C204.643 527.848 205.438 526.346 205.755 524.713C206.073 523.08 205.9 521.389 205.257 519.855C204.83 518.835 204.205 517.909 203.42 517.13C202.635 516.352 201.704 515.735 200.68 515.317C199.656 514.899 198.56 514.686 197.454 514.692C196.348 514.697 195.255 514.92 194.235 515.349V515.349Z" fill="#FF4A60"/>
<path d="M330.319 415.795C328.785 416.44 327.477 417.525 326.56 418.913C325.643 420.301 325.158 421.93 325.166 423.594C325.174 425.257 325.675 426.881 326.606 428.26C327.537 429.639 328.856 430.711 330.396 431.34C331.936 431.97 333.628 432.129 335.259 431.797C336.889 431.465 338.384 430.657 339.555 429.476C340.727 428.294 341.521 426.792 341.839 425.159C342.157 423.526 341.984 421.835 341.341 420.301C340.913 419.281 340.289 418.355 339.504 417.577C338.718 416.798 337.787 416.182 336.764 415.763C335.74 415.345 334.644 415.132 333.538 415.138C332.432 415.143 331.338 415.367 330.319 415.795Z" fill="#FF4A60"/>
<path d="M381.953 424.741C380.419 425.386 379.111 426.471 378.194 427.859C377.277 429.247 376.792 430.876 376.8 432.539C376.808 434.203 377.31 435.827 378.241 437.206C379.172 438.585 380.491 439.657 382.031 440.286C383.57 440.916 385.263 441.075 386.893 440.743C388.523 440.411 390.018 439.603 391.19 438.422C392.361 437.24 393.156 435.738 393.473 434.105C393.791 432.472 393.618 430.781 392.975 429.247C392.548 428.227 391.923 427.301 391.138 426.522C390.353 425.744 389.422 425.128 388.398 424.709C387.374 424.291 386.278 424.078 385.172 424.084C384.066 424.089 382.973 424.313 381.953 424.741Z" fill="#FF4A60"/>
<path d="M171.373 579.091C169.841 579.735 168.534 580.819 167.617 582.206C166.701 583.593 166.216 585.221 166.225 586.883C166.233 588.545 166.733 590.168 167.663 591.546C168.593 592.924 169.911 593.995 171.45 594.624C172.988 595.254 174.679 595.413 176.308 595.082C177.937 594.75 179.432 593.944 180.602 592.764C181.773 591.583 182.568 590.082 182.886 588.451C183.204 586.819 183.031 585.13 182.39 583.596C181.962 582.577 181.339 581.652 180.554 580.874C179.769 580.095 178.838 579.48 177.815 579.061C176.792 578.643 175.697 578.43 174.591 578.435C173.486 578.44 172.393 578.663 171.373 579.091V579.091Z" fill="#FF4A60"/>
<path d="M40.4246 560.906C38.893 561.553 37.5878 562.64 36.6739 564.029C35.7601 565.418 35.2787 567.047 35.2904 568.71C35.3021 570.372 35.8066 571.994 36.7399 573.37C37.6733 574.746 38.9934 575.815 40.5339 576.441C42.0743 577.066 43.7659 577.221 45.3944 576.886C47.023 576.551 48.5154 575.74 49.6834 574.557C50.8513 573.373 51.6421 571.87 51.9559 570.237C52.2696 568.604 52.0922 566.915 51.4461 565.383C50.5778 563.328 48.9291 561.702 46.8622 560.862C44.7954 560.023 42.4799 560.038 40.4246 560.906V560.906Z" fill="#FF4A60"/>
<path d="M102.29 599.745C100.757 600.39 99.4487 601.475 98.5315 602.863C97.6143 604.251 97.129 605.88 97.1373 607.544C97.1456 609.207 97.647 610.831 98.5779 612.21C99.5089 613.589 100.827 614.661 102.367 615.29C103.907 615.92 105.599 616.079 107.23 615.747C108.86 615.415 110.355 614.607 111.527 613.426C112.698 612.244 113.493 610.742 113.811 609.109C114.129 607.476 113.955 605.785 113.312 604.251C112.885 603.23 112.262 602.304 111.476 601.525C110.691 600.746 109.76 600.13 108.736 599.711C107.712 599.293 106.616 599.08 105.51 599.086C104.404 599.092 103.31 599.316 102.29 599.745V599.745Z" fill="#FF4A60"/>
<path d="M115.43 526.992C113.899 527.64 112.594 528.727 111.68 530.116C110.766 531.505 110.285 533.134 110.296 534.796C110.308 536.459 110.812 538.081 111.745 539.457C112.679 540.833 113.999 541.901 115.54 542.527C117.08 543.153 118.772 543.308 120.4 542.973C122.029 542.637 123.521 541.827 124.689 540.643C125.857 539.46 126.648 537.957 126.962 536.324C127.275 534.691 127.098 533.002 126.452 531.47C125.582 529.416 123.934 527.791 121.867 526.951C119.801 526.112 117.486 526.126 115.43 526.992V526.992Z" fill="#FF4A60"/>
<path d="M233.503 552.496C231.971 553.143 230.665 554.229 229.75 555.618C228.835 557.007 228.353 558.636 228.364 560.299C228.375 561.962 228.879 563.584 229.812 564.961C230.745 566.337 232.065 567.406 233.606 568.033C235.147 568.659 236.838 568.814 238.467 568.479C240.096 568.143 241.589 567.333 242.757 566.149C243.925 564.965 244.716 563.462 245.03 561.828C245.343 560.195 245.166 558.506 244.519 556.973C243.652 554.919 242.004 553.293 239.938 552.453C237.872 551.614 235.558 551.629 233.503 552.496V552.496Z" fill="#FF4A60"/>
<path d="M217.226 455.867C215.692 456.514 214.385 457.601 213.47 458.991C212.554 460.381 212.072 462.011 212.083 463.675C212.094 465.34 212.598 466.963 213.532 468.341C214.466 469.718 215.788 470.788 217.33 471.414C218.872 472.041 220.565 472.196 222.195 471.86C223.825 471.524 225.319 470.712 226.488 469.527C227.657 468.342 228.448 466.837 228.761 465.202C229.074 463.568 228.895 461.877 228.248 460.344C227.819 459.325 227.193 458.402 226.407 457.625C225.621 456.849 224.689 456.235 223.665 455.819C222.642 455.403 221.546 455.193 220.441 455.201C219.336 455.21 218.243 455.436 217.226 455.867Z" fill="#FF4A60"/>
<path d="M81.6592 500.415C80.1255 501.06 78.8175 502.145 77.9003 503.533C76.9831 504.921 76.4979 506.55 76.5061 508.214C76.5144 509.877 77.0158 511.501 77.9468 512.88C78.8777 514.259 80.1966 515.331 81.7366 515.96C83.2765 516.59 84.9686 516.749 86.5988 516.417C88.2291 516.085 89.7244 515.277 90.8957 514.096C92.067 512.914 92.8617 511.412 93.1795 509.779C93.4973 508.146 93.3239 506.455 92.6811 504.921C92.2538 503.901 91.6295 502.975 90.8441 502.197C90.0588 501.418 89.1278 500.802 88.1041 500.383C87.0805 499.965 85.9843 499.752 84.8784 499.758C83.7725 499.763 82.6787 499.987 81.6592 500.415V500.415Z" fill="#FF4A60"/>
<path d="M62.2055 420.265C60.6731 420.91 59.3659 421.994 58.4494 423.381C57.5329 424.768 57.0481 426.395 57.0562 428.058C57.0643 429.72 57.5651 431.343 58.4951 432.721C59.4252 434.098 60.7428 435.17 62.2815 435.799C63.8202 436.428 65.5109 436.588 67.14 436.256C68.7691 435.925 70.2637 435.118 71.4344 433.938C72.6052 432.758 73.3998 431.257 73.7179 429.625C74.036 427.994 73.8632 426.304 73.2216 424.771C72.7949 423.751 72.1715 422.825 71.3866 422.047C70.6018 421.268 69.6712 420.652 68.648 420.234C67.6248 419.815 66.5291 419.603 65.4237 419.608C64.3182 419.613 63.2246 419.837 62.2055 420.265V420.265Z" fill="#FF4A60"/>
<path d="M122.028 412.878C120.494 413.523 119.186 414.608 118.269 415.996C117.352 417.384 116.867 419.013 116.875 420.676C116.883 422.34 117.384 423.964 118.315 425.343C119.246 426.722 120.565 427.794 122.105 428.423C123.645 429.053 125.337 429.211 126.968 428.88C128.598 428.548 130.093 427.74 131.264 426.559C132.436 425.377 133.23 423.875 133.548 422.242C133.866 420.609 133.693 418.918 133.05 417.384C132.623 416.363 131.999 415.437 131.214 414.658C130.429 413.879 129.498 413.263 128.474 412.844C127.45 412.425 126.353 412.213 125.247 412.219C124.141 412.225 123.047 412.449 122.028 412.878V412.878Z" fill="#FF4A60"/>
<path d="M193.735 400.167C192.201 400.812 190.893 401.897 189.976 403.285C189.059 404.673 188.574 406.302 188.582 407.965C188.59 409.629 189.091 411.253 190.022 412.632C190.953 414.011 192.272 415.082 193.812 415.712C195.352 416.341 197.044 416.5 198.674 416.168C200.305 415.837 201.8 415.029 202.971 413.847C204.142 412.666 204.937 411.164 205.255 409.531C205.573 407.898 205.399 406.207 204.757 404.673C204.33 403.652 203.707 402.725 202.922 401.945C202.137 401.166 201.206 400.549 200.182 400.131C199.158 399.712 198.061 399.5 196.955 399.506C195.848 399.512 194.754 399.737 193.735 400.167V400.167Z" fill="#FF4A60"/>
<path d="M160.552 343.182C159.02 343.827 157.714 344.912 156.799 346.299C155.883 347.686 155.399 349.314 155.408 350.976C155.417 352.638 155.918 354.26 156.848 355.638C157.778 357.015 159.096 358.086 160.635 358.715C162.173 359.344 163.863 359.502 165.492 359.171C167.121 358.84 168.615 358.033 169.785 356.853C170.956 355.673 171.751 354.173 172.069 352.542C172.387 350.91 172.215 349.221 171.574 347.688C170.71 345.629 169.063 343.997 166.996 343.152C164.929 342.307 162.611 342.318 160.552 343.182V343.182Z" fill="#FF4A60"/>
<path d="M107.019 366.983C105.486 367.63 104.179 368.718 103.263 370.107C102.348 371.497 101.865 373.128 101.876 374.792C101.888 376.456 102.392 378.08 103.326 379.457C104.26 380.835 105.582 381.905 107.124 382.531C108.666 383.157 110.359 383.312 111.989 382.976C113.619 382.64 115.112 381.829 116.281 380.644C117.45 379.459 118.241 377.954 118.554 376.319C118.867 374.685 118.689 372.994 118.041 371.461C117.612 370.442 116.987 369.518 116.201 368.742C115.414 367.965 114.483 367.352 113.459 366.936C112.435 366.52 111.339 366.31 110.234 366.318C109.129 366.326 108.037 366.552 107.019 366.983V366.983Z" fill="#FF4A60"/>
<path d="M252.944 377.836C251.409 378.48 250.1 379.564 249.182 380.952C248.264 382.34 247.778 383.969 247.786 385.633C247.793 387.297 248.294 388.921 249.225 390.3C250.156 391.68 251.474 392.752 253.015 393.382C254.555 394.012 256.247 394.171 257.878 393.839C259.509 393.508 261.004 392.7 262.175 391.518C263.347 390.336 264.142 388.834 264.459 387.2C264.777 385.567 264.603 383.876 263.96 382.341C263.533 381.322 262.908 380.397 262.124 379.619C261.339 378.841 260.408 378.225 259.385 377.806C258.362 377.388 257.267 377.175 256.162 377.18C255.056 377.185 253.963 377.408 252.944 377.836V377.836Z" fill="#FF4A60"/>
<path d="M214.472 324.04C212.94 324.685 211.634 325.77 210.718 327.157C209.803 328.544 209.319 330.172 209.328 331.834C209.336 333.496 209.838 335.118 210.768 336.495C211.698 337.873 213.016 338.944 214.554 339.573C216.093 340.201 217.783 340.36 219.412 340.029C221.041 339.698 222.534 338.891 223.705 337.711C224.876 336.531 225.671 335.031 225.989 333.4C226.307 331.768 226.135 330.079 225.494 328.546C224.629 326.487 222.983 324.855 220.916 324.01C218.849 323.165 216.531 323.176 214.472 324.04V324.04Z" fill="#FF4A60"/>
<path d="M281.666 428.676C280.134 429.321 278.828 430.406 277.913 431.793C276.997 433.18 276.513 434.807 276.522 436.469C276.531 438.131 277.032 439.754 277.962 441.131C278.892 442.508 280.21 443.579 281.749 444.208C283.287 444.837 284.977 444.996 286.606 444.665C288.235 444.333 289.729 443.527 290.899 442.347C292.07 441.167 292.865 439.666 293.183 438.035C293.501 436.404 293.329 434.715 292.688 433.181C292.261 432.161 291.636 431.235 290.851 430.457C290.066 429.678 289.135 429.062 288.111 428.644C287.087 428.225 285.991 428.013 284.885 428.018C283.779 428.024 282.686 428.247 281.666 428.676V428.676Z" fill="#FF4A60"/>
<path d="M293.976 313.054C292.445 313.701 291.139 314.788 290.225 316.177C289.312 317.567 288.83 319.195 288.842 320.858C288.854 322.521 289.358 324.143 290.291 325.519C291.224 326.895 292.545 327.963 294.085 328.589C295.626 329.215 297.317 329.37 298.946 329.035C300.575 328.699 302.067 327.889 303.235 326.705C304.403 325.522 305.194 324.018 305.507 322.385C305.821 320.753 305.644 319.063 304.998 317.531C304.129 315.476 302.481 313.85 300.414 313.011C298.347 312.171 296.031 312.187 293.976 313.054V313.054Z" fill="#FF4A60"/>
<path d="M310.816 359.995C309.282 360.639 307.973 361.723 307.055 363.111C306.137 364.499 305.651 366.128 305.658 367.792C305.666 369.456 306.167 371.08 307.098 372.46C308.028 373.839 309.347 374.911 310.887 375.541C312.427 376.171 314.12 376.33 315.75 375.999C317.381 375.667 318.877 374.859 320.048 373.677C321.22 372.495 322.014 370.993 322.332 369.359C322.649 367.726 322.476 366.035 321.832 364.5C321.405 363.481 320.781 362.556 319.996 361.778C319.211 361 318.281 360.384 317.258 359.966C316.235 359.547 315.139 359.334 314.034 359.339C312.929 359.344 311.835 359.567 310.816 359.995Z" fill="#FF4A60"/>
<path d="M93.8629 448.202C92.3314 448.849 91.0262 449.936 90.1123 451.325C89.1985 452.714 88.717 454.343 88.7287 456.006C88.7404 457.669 89.245 459.291 90.1783 460.667C91.1116 462.043 92.4318 463.111 93.9722 463.737C95.5127 464.363 97.2042 464.518 98.8328 464.182C100.461 463.847 101.954 463.036 103.122 461.853C104.29 460.67 105.081 459.166 105.395 457.533C105.708 455.901 105.531 454.211 104.885 452.679C104.017 450.624 102.368 448.998 100.301 448.159C98.2341 447.319 95.9183 447.335 93.8629 448.202Z" fill="#FF4A60"/>
<path d="M344.197 565.079C342.663 565.726 341.356 566.813 340.441 568.203C339.525 569.593 339.042 571.223 339.054 572.888C339.065 574.552 339.569 576.175 340.503 577.553C341.437 578.931 342.759 580 344.301 580.627C345.843 581.253 347.536 581.408 349.166 581.072C350.796 580.736 352.29 579.924 353.459 578.739C354.627 577.554 355.418 576.049 355.731 574.415C356.045 572.78 355.866 571.089 355.218 569.556C354.35 567.501 352.701 565.875 350.634 565.036C348.568 564.196 346.252 564.212 344.197 565.079V565.079Z" fill="#FF4A60"/>
<path d="M396.631 587.009C395.099 587.655 393.792 588.739 392.877 590.126C391.961 591.514 391.477 593.141 391.486 594.803C391.495 596.465 391.996 598.087 392.926 599.465C393.857 600.842 395.174 601.913 396.713 602.542C398.251 603.171 399.942 603.33 401.57 602.998C403.199 602.667 404.693 601.86 405.864 600.681C407.034 599.501 407.829 598 408.147 596.369C408.466 594.737 408.293 593.048 407.652 591.515C406.788 589.456 405.141 587.825 403.074 586.98C401.007 586.135 398.69 586.145 396.631 587.009V587.009Z" fill="#FF4A60"/>
<path d="M380.957 625.856C379.722 626.663 378.295 627.129 376.822 627.208C375.349 627.287 373.881 626.976 372.566 626.307C371.251 625.638 370.136 624.634 369.333 623.397C368.53 622.159 368.067 620.732 367.992 619.258C367.916 617.785 368.23 616.318 368.902 615.005C369.575 613.691 370.581 612.578 371.82 611.778C373.06 610.978 374.488 610.519 375.962 610.447C377.435 610.375 378.902 610.692 380.214 611.368L380.957 625.856Z" fill="#FF4A60"/>
<path d="M124.135 327.308C122.503 328.248 120.602 328.613 118.738 328.342C116.874 328.072 115.155 327.184 113.856 325.819C117.74 321.823 121.818 317.992 126.091 314.325C126.955 315.247 127.599 316.353 127.975 317.559C128.35 318.765 128.448 320.041 128.259 321.291C128.071 322.54 127.603 323.731 126.888 324.773C126.174 325.815 125.233 326.682 124.135 327.308Z" fill="#FF4A60"/>
<path d="M335.541 313.763C334.564 312.152 334.157 310.26 334.385 308.391C334.612 306.521 335.462 304.782 336.796 303.453C340.879 307.244 344.802 311.235 348.565 315.423C347.663 316.308 346.572 316.977 345.375 317.38C344.177 317.783 342.904 317.909 341.651 317.749C340.397 317.59 339.196 317.148 338.138 316.458C337.08 315.767 336.192 314.846 335.541 313.763Z" fill="#FF4A60"/>
<path d="M160.189 476.122C162.072 476.146 163.893 476.802 165.359 477.986C166.824 479.169 167.85 480.81 168.271 482.646C162.892 484.102 157.43 485.317 151.884 486.291C151.611 485.058 151.621 483.778 151.914 482.549C152.206 481.32 152.773 480.173 153.572 479.194C154.371 478.215 155.382 477.43 156.528 476.898C157.674 476.366 158.926 476.101 160.189 476.122Z" fill="#FF4A60"/>
<path d="M173.017 296.814C171.689 297.652 170.152 298.099 168.581 298.105C167.011 298.11 165.471 297.674 164.136 296.846C162.802 296.019 161.727 294.832 161.034 293.423C160.342 292.013 160.06 290.437 160.22 288.875C164.111 286.496 168.084 284.195 172.175 282.103C173.535 282.748 174.697 283.747 175.538 284.996C176.379 286.245 176.868 287.698 176.953 289.201C177.039 290.704 176.719 292.203 176.026 293.539C175.333 294.876 174.293 296.001 173.015 296.798L173.017 296.814Z" fill="#FF4A60"/>
<path d="M362.623 361.142C361.801 359.805 361.371 358.262 361.383 356.692C361.395 355.122 361.848 353.586 362.691 352.261C363.534 350.936 364.732 349.875 366.15 349.198C367.567 348.522 369.146 348.257 370.706 348.435C373.041 352.353 375.298 356.351 377.343 360.466C376.683 361.819 375.67 362.969 374.412 363.796C373.153 364.622 371.696 365.095 370.192 365.164C368.688 365.233 367.193 364.896 365.864 364.188C364.535 363.48 363.421 362.427 362.64 361.14L362.623 361.142Z" fill="#FF4A60"/>
<path d="M27.0311 493.645C28.9372 494.011 30.6582 495.025 31.9025 496.514C33.1468 498.004 33.8377 499.877 33.8585 501.818C33.8793 503.759 33.2288 505.647 32.0168 507.163C30.8048 508.679 29.1059 509.729 27.2082 510.136C26.1093 510.374 24.9735 510.387 23.8694 510.174L27.0311 493.645Z" fill="#FF4A60"/>
</g>
<defs>
<filter id="filter0_d_98317_35975" x="428.85" y="354.997" width="217.967" height="186.64" filterUnits="userSpaceOnUse" color-interpolation-filters="sRGB">
<feFlood flood-opacity="0" result="BackgroundImageFix"/>
<feColorMatrix in="SourceAlpha" type="matrix" values="0 0 0 0 0 0 0 0 0 0 0 0 0 0 0 0 0 0 127 0" result="hardAlpha"/>
<feOffset dy="4"/>
<feGaussianBlur stdDeviation="2"/>
<feComposite in2="hardAlpha" operator="out"/>
<feColorMatrix type="matrix" values="0 0 0 0 0 0 0 0 0 0 0 0 0 0 0 0 0 0 0.25 0"/>
<feBlend mode="normal" in2="BackgroundImageFix" result="effect1_dropShadow_98317_35975"/>
<feBlend mode="normal" in="SourceGraphic" in2="effect1_dropShadow_98317_35975" result="shape"/>
</filter>
</defs>
</svg>
