<svg width="383" height="329" viewBox="0 0 383 329" fill="none" xmlns="http://www.w3.org/2000/svg">
<path d="M0.780518 0.574219H382.781V328.371H0.780518V0.574219Z" fill="#F1F0EE"/>
<rect x="255.29" y="62.9651" width="63.4359" height="213.212" rx="9" fill="#0B0B0B"/>
<rect x="248.626" y="56.2463" width="60.7279" height="211.624" rx="7.5" fill="white" stroke="#0B0B0B" stroke-width="3"/>
<path d="M251.694 76.4329H250.194V79.4329H251.694V76.4329ZM269.511 79.4329C270.34 79.4329 271.011 78.7613 271.011 77.9329C271.011 77.1044 270.34 76.4329 269.511 76.4329V79.4329ZM251.694 79.4329H269.511V76.4329H251.694V79.4329Z" fill="#FFC224"/>
<line x1="248.626" y1="93.1963" x2="288.872" y2="93.1963" stroke="#0B0B0B" stroke-width="3" stroke-linecap="round"/>
<path d="M251.694 106.96H250.194V109.96H251.694V106.96ZM269.511 109.96C270.34 109.96 271.011 109.288 271.011 108.46C271.011 107.631 270.34 106.96 269.511 106.96V109.96ZM251.694 109.96H269.511V106.96H251.694V109.96Z" fill="#FFC224"/>
<path d="M251.694 137.487H250.194V140.487H251.694V137.487ZM269.511 140.487C270.34 140.487 271.011 139.815 271.011 138.987C271.011 138.158 270.34 137.487 269.511 137.487V140.487ZM251.694 140.487H269.511V137.487H251.694V140.487Z" fill="#FFC224"/>
<path d="M251.694 168.014H250.194V171.014H251.694V168.014ZM269.511 171.014C270.34 171.014 271.011 170.342 271.011 169.514C271.011 168.685 270.34 168.014 269.511 168.014V171.014ZM251.694 171.014H269.511V168.014H251.694V171.014Z" fill="#FFC224"/>
<path d="M251.694 198.541H250.194V201.541H251.694V198.541ZM269.511 201.541C270.34 201.541 271.011 200.869 271.011 200.041C271.011 199.212 270.34 198.541 269.511 198.541V201.541ZM251.694 201.541H269.511V198.541H251.694V201.541Z" fill="#FFC224"/>
<path d="M251.694 229.068H250.194V232.068H251.694V229.068ZM269.511 232.068C270.34 232.068 271.011 231.396 271.011 230.568C271.011 229.739 270.34 229.068 269.511 229.068V232.068ZM251.694 232.068H269.511V229.068H251.694V232.068Z" fill="#FFC224"/>
<line x1="248.626" y1="123.723" x2="287.08" y2="123.723" stroke="#0B0B0B" stroke-width="3" stroke-linecap="round"/>
<line x1="248.626" y1="154.25" x2="287.08" y2="154.25" stroke="#0B0B0B" stroke-width="3" stroke-linecap="round"/>
<line x1="248.626" y1="184.777" x2="287.08" y2="184.777" stroke="#0B0B0B" stroke-width="3" stroke-linecap="round"/>
<line x1="248.626" y1="215.304" x2="287.08" y2="215.304" stroke="#0B0B0B" stroke-width="3" stroke-linecap="round"/>
<line x1="248.626" y1="245.831" x2="287.08" y2="245.831" stroke="#0B0B0B" stroke-width="3" stroke-linecap="round"/>
<mask id="path-16-inside-1_98453_41233" fill="white">
<path fill-rule="evenodd" clip-rule="evenodd" d="M219.98 126.29C219.849 111.501 210.872 98.8242 198.082 93.2948C194.475 88.0414 192.976 83.9681 191.678 76.898L190.232 66.2186C189.413 60.1673 184.879 55.2383 178.86 54.2056C159.388 50.8645 144.867 50.9559 125.703 54.2213C119.665 55.2502 115.108 60.1863 114.286 66.2557L112.845 76.898C111.895 83.6953 110.819 87.7924 106.749 93.2018C93.7495 98.7212 84.6326 111.605 84.6326 126.617V213.342C84.6326 228.922 94.4511 242.208 108.238 247.351C110.656 251.453 111.865 255.247 112.936 261.084L114.889 275.509C115.404 279.315 118.265 282.401 122.039 283.109C144.712 287.357 160.343 287.23 182.64 283.096C186.427 282.394 189.303 279.303 189.819 275.486L191.769 261.084C192.555 255.46 193.427 251.685 196.01 247.486C209.989 242.443 219.982 229.06 219.982 213.342V152.188C220.458 152.43 220.995 152.562 221.554 152.562C223.264 152.562 224.73 151.326 224.973 149.633C226.109 141.715 226.027 136.374 224.956 128.792C224.72 127.119 223.275 125.892 221.586 125.892C221.013 125.892 220.463 126.034 219.98 126.29Z"/>
</mask>
<path fill-rule="evenodd" clip-rule="evenodd" d="M219.98 126.29C219.849 111.501 210.872 98.8242 198.082 93.2948C194.475 88.0414 192.976 83.9681 191.678 76.898L190.232 66.2186C189.413 60.1673 184.879 55.2383 178.86 54.2056C159.388 50.8645 144.867 50.9559 125.703 54.2213C119.665 55.2502 115.108 60.1863 114.286 66.2557L112.845 76.898C111.895 83.6953 110.819 87.7924 106.749 93.2018C93.7495 98.7212 84.6326 111.605 84.6326 126.617V213.342C84.6326 228.922 94.4511 242.208 108.238 247.351C110.656 251.453 111.865 255.247 112.936 261.084L114.889 275.509C115.404 279.315 118.265 282.401 122.039 283.109C144.712 287.357 160.343 287.23 182.64 283.096C186.427 282.394 189.303 279.303 189.819 275.486L191.769 261.084C192.555 255.46 193.427 251.685 196.01 247.486C209.989 242.443 219.982 229.06 219.982 213.342V152.188C220.458 152.43 220.995 152.562 221.554 152.562C223.264 152.562 224.73 151.326 224.973 149.633C226.109 141.715 226.027 136.374 224.956 128.792C224.72 127.119 223.275 125.892 221.586 125.892C221.013 125.892 220.463 126.034 219.98 126.29Z" fill="#0B0B0B"/>
<path d="M198.082 93.2948L195.609 94.9929L196.098 95.7055L196.892 96.0485L198.082 93.2948ZM219.98 126.29L216.98 126.316L217.024 131.251L221.385 128.941L219.98 126.29ZM191.678 76.898L188.705 77.3005L188.715 77.3704L188.727 77.4397L191.678 76.898ZM190.232 66.2186L187.259 66.621L187.259 66.621L190.232 66.2186ZM178.86 54.2056L178.353 57.1624L178.353 57.1624L178.86 54.2056ZM125.703 54.2213L125.199 51.264L125.199 51.264L125.703 54.2213ZM114.286 66.2557L117.259 66.6581L117.259 66.6581L114.286 66.2557ZM112.845 76.898L115.817 77.3135L115.818 77.3005L112.845 76.898ZM106.749 93.2018L107.921 95.9632L108.662 95.6486L109.146 95.0055L106.749 93.2018ZM108.238 247.351L110.822 245.828L110.282 244.912L109.286 244.541L108.238 247.351ZM112.936 261.084L115.909 260.681L115.9 260.611L115.887 260.542L112.936 261.084ZM114.889 275.509L111.916 275.911L111.916 275.911L114.889 275.509ZM122.039 283.109L121.487 286.057L121.487 286.057L122.039 283.109ZM182.64 283.096L183.186 286.046L183.186 286.046L182.64 283.096ZM189.819 275.486L186.846 275.083L186.846 275.083L189.819 275.486ZM191.769 261.084L188.798 260.668L188.796 260.681L191.769 261.084ZM196.01 247.486L194.992 244.664L194.004 245.02L193.454 245.914L196.01 247.486ZM219.982 152.188L221.336 149.512L216.982 147.309V152.188H219.982ZM224.973 149.633L227.942 150.059L227.942 150.059L224.973 149.633ZM224.956 128.792L221.986 129.212L221.986 129.212L224.956 128.792ZM196.892 96.0485C208.63 101.123 216.86 112.755 216.98 126.316L222.98 126.263C222.838 110.246 213.113 96.525 199.273 90.5411L196.892 96.0485ZM188.727 77.4397C190.083 84.8264 191.713 89.318 195.609 94.9929L200.555 91.5967C197.238 86.7647 195.869 83.1099 194.629 76.3564L188.727 77.4397ZM187.259 66.621L188.705 77.3005L194.651 76.4956L193.205 65.8161L187.259 66.621ZM178.353 57.1624C183.013 57.962 186.607 61.7997 187.259 66.621L193.205 65.8161C192.22 58.535 186.745 52.5146 179.368 51.2488L178.353 57.1624ZM126.207 57.1787C145.045 53.9688 159.224 53.8802 178.353 57.1624L179.368 51.2488C159.552 47.8488 144.689 47.9429 125.199 51.264L126.207 57.1787ZM117.259 66.6581C117.913 61.8235 121.526 57.9764 126.207 57.1787L125.199 51.264C117.805 52.5239 112.302 58.5491 111.313 65.8532L117.259 66.6581ZM115.818 77.3005L117.259 66.6581L111.313 65.8532L109.873 76.4956L115.818 77.3005ZM109.146 95.0055C113.642 89.0302 114.83 84.3712 115.816 77.3135L109.874 76.4826C108.96 83.0194 107.996 86.5547 104.352 91.3981L109.146 95.0055ZM87.6326 126.617C87.6326 112.85 95.9907 101.029 107.921 95.9632L105.576 90.4404C91.5084 96.4136 81.6326 110.359 81.6326 126.617H87.6326ZM87.6326 213.342V126.617H81.6326V213.342H87.6326ZM109.286 244.541C96.6348 239.821 87.6326 227.629 87.6326 213.342H81.6326C81.6326 230.215 92.2674 244.596 107.189 250.162L109.286 244.541ZM115.887 260.542C114.778 254.499 113.479 250.335 110.822 245.828L105.654 248.875C107.833 252.571 108.952 255.996 109.986 261.625L115.887 260.542ZM117.862 275.107L115.909 260.681L109.963 261.486L111.916 275.911L117.862 275.107ZM122.592 280.16C120.124 279.698 118.208 277.666 117.862 275.107L111.916 275.911C112.6 280.963 116.406 285.105 121.487 286.057L122.592 280.16ZM182.093 280.147C160.148 284.215 144.891 284.338 122.592 280.16L121.487 286.057C144.534 290.376 160.537 290.245 183.186 286.046L182.093 280.147ZM186.846 275.083C186.499 277.65 184.573 279.687 182.093 280.147L183.186 286.046C188.28 285.102 192.106 280.956 192.792 275.888L186.846 275.083ZM188.796 260.681L186.846 275.083L192.792 275.888L194.742 261.486L188.796 260.681ZM193.454 245.914C190.547 250.642 189.603 254.907 188.798 260.668L194.74 261.499C195.507 256.014 196.308 252.728 198.565 249.057L193.454 245.914ZM216.982 213.342C216.982 227.756 207.819 240.037 194.992 244.664L197.028 250.308C212.158 244.85 222.982 230.364 222.982 213.342H216.982ZM216.982 152.188V213.342H222.982V152.188H216.982ZM221.554 149.562C221.472 149.562 221.398 149.543 221.336 149.512L218.627 154.865C219.518 155.316 220.519 155.562 221.554 155.562V149.562ZM222.003 149.207C221.978 149.38 221.814 149.562 221.554 149.562V155.562C224.713 155.562 227.481 153.271 227.942 150.059L222.003 149.207ZM221.986 129.212C223.02 136.533 223.097 141.588 222.003 149.207L227.942 150.059C229.122 141.841 229.035 136.215 227.927 128.372L221.986 129.212ZM221.586 128.892C221.815 128.892 221.963 129.053 221.986 129.212L227.927 128.372C227.476 125.186 224.735 122.892 221.586 122.892V128.892ZM221.385 128.941C221.443 128.91 221.511 128.892 221.586 128.892V122.892C220.515 122.892 219.484 123.158 218.576 123.639L221.385 128.941Z" fill="#0B0B0B" mask="url(#path-16-inside-1_98453_41233)"/>
<path d="M186.441 83.0398C187.433 85.3266 188.676 87.479 190.31 89.8367L101.14 89.7518C102.995 87.3108 104.291 85.0924 105.239 82.7683C106.49 79.7001 107.098 76.5301 107.65 72.5875L107.65 72.581L109.091 61.9386C109.829 56.4866 113.914 52.095 119.274 51.1817C138.274 47.944 152.625 47.854 171.925 51.1657C177.264 52.0818 181.329 56.4652 182.064 61.9015L183.51 72.581L183.515 72.6159L183.521 72.6506C184.282 76.7938 185.125 80.0028 186.441 83.0398Z" fill="white" stroke="#0B0B0B" stroke-width="3"/>
<path d="M104.81 245.905C103.819 243.618 102.575 241.466 100.942 239.108L190.111 239.193C188.257 241.634 186.96 243.853 186.013 246.177C184.762 249.245 184.153 252.415 183.602 256.358L183.601 256.364L181.651 270.766C181.219 273.958 178.819 276.522 175.685 277.103C153.564 281.204 138.12 281.329 115.634 277.116C112.513 276.531 110.125 273.972 109.694 270.789L107.741 256.364L107.737 256.329L107.73 256.294C106.97 252.151 106.127 248.942 104.81 245.905Z" fill="white" stroke="#0B0B0B" stroke-width="3"/>
<rect x="79.4512" y="87.3125" width="132.349" height="156.298" rx="34.7866" fill="white" stroke="#0B0B0B" stroke-width="3"/>
<rect x="109.281" y="145.198" width="89.8625" height="67.3044" rx="10" fill="#81E644"/>
<rect x="99.5349" y="136.208" width="92.217" height="67.5155" rx="8.5" stroke="#0B0B0B" stroke-width="3"/>
<line x1="123.777" y1="117.71" x2="157.513" y2="117.71" stroke="#0B0B0B" stroke-width="3" stroke-linecap="round"/>
<line x1="123.777" y1="124.785" x2="173.898" y2="124.785" stroke="#0B0B0B" stroke-width="3" stroke-linecap="round"/>
<line x1="129.294" y1="223.821" x2="167.769" y2="223.821" stroke="#0B0B0B" stroke-width="3" stroke-linecap="round"/>
<circle cx="107.549" cy="121.002" r="8.04882" fill="#81E644" stroke="#0B0B0B" stroke-width="3"/>
<path d="M211.653 123.776C212.076 122.341 213.409 121.373 214.904 121.373V121.373C216.593 121.373 218.038 122.601 218.275 124.274C219.346 131.856 219.428 137.196 218.292 145.115C218.049 146.807 216.582 148.044 214.872 148.044V148.044C213.387 148.044 212.053 147.105 211.611 145.688C208.909 137.01 209.345 131.599 211.653 123.776Z" fill="white" stroke="#0B0B0B" stroke-width="3"/>
</svg>
