<svg width="129" height="34" viewBox="0 0 129 34" fill="none" xmlns="http://www.w3.org/2000/svg">
<path d="M113.964 26.5737C112.758 25.85 111.793 24.8851 111.069 23.6789C110.345 22.4727 110.014 21.146 110.014 19.6985C110.014 18.2813 110.345 16.9545 111.069 15.7483C111.793 14.5421 112.758 13.5772 113.964 12.8535C115.17 12.1298 116.497 11.7679 117.944 11.7679C119.362 11.7679 120.688 12.1298 121.895 12.8535C123.101 13.5772 124.066 14.5421 124.789 15.7483C125.513 16.9545 125.875 18.2813 125.875 19.6985C125.875 21.146 125.513 22.4727 124.789 23.6789C124.066 24.8851 123.101 25.85 121.895 26.5737C120.688 27.2974 119.362 27.6291 117.944 27.6291C116.497 27.6291 115.17 27.2974 113.964 26.5737ZM120.025 23.3472C120.658 22.9854 121.171 22.4727 121.563 21.8094C121.925 21.1761 122.136 20.4826 122.136 19.6985C122.136 18.9447 121.925 18.2511 121.563 17.5877C121.171 16.9545 120.658 16.4419 120.025 16.0499C119.362 15.688 118.668 15.4769 117.914 15.4769C117.13 15.4769 116.437 15.688 115.803 16.0499C115.14 16.4419 114.627 16.9545 114.265 17.5877C113.904 18.2511 113.723 18.9447 113.723 19.6985C113.723 20.4826 113.904 21.1761 114.265 21.8094C114.627 22.4727 115.14 22.9854 115.803 23.3472C116.437 23.7091 117.13 23.89 117.914 23.89C118.668 23.89 119.362 23.7091 120.025 23.3472Z" fill="#0B0B0B"/>
<path d="M104.511 9.05408C104.089 8.69223 103.908 8.14945 103.908 7.48606C103.908 6.82266 104.089 6.27988 104.511 5.88787C104.903 5.52602 105.446 5.31494 106.17 5.31494C106.863 5.31494 107.406 5.52602 107.828 5.88787C108.22 6.27988 108.431 6.82266 108.431 7.48606C108.431 8.14945 108.22 8.66208 107.798 9.05408C107.376 9.44609 106.833 9.62702 106.17 9.62702C105.446 9.62702 104.903 9.44609 104.511 9.05408ZM104.27 27.207V12.1298H108.009V27.207H104.27Z" fill="#0B0B0B"/>
<path d="M96.9546 6.09888H100.694V27.2069H96.9546V25.7595C96.2611 26.3626 95.5072 26.8451 94.6629 27.1466C93.8186 27.4783 92.9441 27.6291 92.0395 27.6291C90.5016 27.6291 89.1748 27.2974 88.0289 26.6039C86.8831 25.9405 85.9784 24.9755 85.3753 23.7693C84.7722 22.5632 84.4707 21.2062 84.4707 19.6985C84.4707 18.1908 84.7722 16.8338 85.3753 15.6277C85.9784 14.4215 86.8831 13.4867 88.0289 12.7932C89.1748 12.0996 90.5016 11.7377 92.0395 11.7377C92.9441 11.7377 93.7884 11.9187 94.6327 12.2504C95.4771 12.5821 96.2309 13.0344 96.9546 13.6073V6.09888ZM94.7533 23.498C95.4167 23.1361 95.9595 22.5933 96.3515 21.9299C96.7435 21.2665 96.9546 20.5127 96.9546 19.6683C96.9546 18.4019 96.5023 17.3766 95.658 16.5624C94.8137 15.7784 93.7583 15.3563 92.5219 15.3563C91.2554 15.3563 90.2 15.7784 89.3859 16.5926C88.5717 17.4068 88.1797 18.432 88.1797 19.6985C88.1797 20.965 88.5717 22.0204 89.3859 22.8346C90.2 23.6487 91.2554 24.0407 92.5219 24.0407C93.3361 24.0407 94.0899 23.8598 94.7533 23.498Z" fill="#0B0B0B"/>
<path d="M78.4451 12.1298H82.1842V27.2069H78.4451V25.9405C77.9023 26.4531 77.2992 26.8451 76.6358 27.1466C75.9724 27.4482 75.2487 27.599 74.525 27.599C73.6204 27.599 72.7158 27.418 71.8111 27.0562C70.9065 26.6943 70.1225 26.0008 69.4591 25.0358C68.7957 24.0709 68.4941 22.7743 68.4941 21.1459V12.1298H72.2333V21.1459C72.2333 22.2918 72.5348 23.106 73.1681 23.5884C73.8013 24.0709 74.5552 24.3121 75.3995 24.3121C76.2438 24.3121 76.9374 24.0407 77.5405 23.4377C78.1435 22.8346 78.4451 21.8998 78.4451 20.573V12.1298Z" fill="#0B0B0B"/>
<path d="M63.4917 23.4678C63.7932 23.7392 64.3058 23.8598 65.0295 23.8598C65.4517 23.8598 65.904 23.8297 66.4166 23.7694V27.207C65.4517 27.3276 64.6677 27.3577 64.0646 27.3577C62.4363 27.3577 61.2301 26.9959 60.4461 26.2722C59.6621 25.5485 59.2701 24.2217 59.2701 22.2918V15.4769H56.4355V12.1298H59.2701V8.42078L63.0092 7.1543V12.1298H66.3563V15.4769H63.0092V22.0506C63.0092 22.7441 63.16 23.2266 63.4917 23.4678Z" fill="#0B0B0B"/>
<path d="M47.7029 17.3164C48.1854 17.5274 48.9392 17.7385 49.9645 17.9496C51.1103 18.1908 52.1054 18.4622 52.8894 18.7638C53.6735 19.0653 54.3369 19.5478 54.9098 20.2112C55.4827 20.8746 55.7843 21.749 55.7843 22.8346C55.7843 23.8297 55.4827 24.674 54.8796 25.3977C54.2765 26.1214 53.4925 26.6944 52.5276 27.0562C51.5325 27.4181 50.4469 27.599 49.3011 27.599C47.7029 27.599 46.3459 27.2975 45.2001 26.6944C44.0542 26.0913 43.24 25.247 42.6973 24.1011L45.773 22.5029C46.3158 23.89 47.4918 24.5836 49.3011 24.5836C50.0851 24.5836 50.7485 24.4328 51.3214 24.1312C51.8642 23.8297 52.1657 23.4075 52.1657 22.8346C52.1657 22.3521 51.8944 22.0204 51.3817 21.7792C50.8691 21.538 50.0549 21.2967 48.9091 20.9952C47.7029 20.7238 46.738 20.4524 46.0142 20.1509C45.2604 19.8795 44.6271 19.4573 44.0844 18.8542C43.5416 18.2511 43.2702 17.4671 43.2702 16.472C43.2702 15.5071 43.5416 14.6929 44.0844 13.9692C44.6271 13.2455 45.3509 12.7027 46.2856 12.3107C47.1903 11.9489 48.2155 11.7378 49.3312 11.7378C50.6279 11.7378 51.8039 12.0092 52.8291 12.552C53.8544 13.0947 54.6686 13.8788 55.2415 14.8738L52.1959 16.4117C51.6531 15.296 50.7183 14.7231 49.3312 14.7231C48.6075 14.7231 48.0647 14.8738 47.6426 15.1754C47.2204 15.4769 47.0093 15.8689 47.0093 16.3514C47.0093 16.7736 47.2204 17.1053 47.7029 17.3164Z" fill="#0B0B0B"/>
<mask id="mask0_4103_5527" style="mask-type:alpha" maskUnits="userSpaceOnUse" x="0" y="0" width="34" height="34">
<circle cx="16.7524" cy="16.7524" r="16.7524" fill="#D9D9D9"/>
</mask>
<g mask="url(#mask0_4103_5527)">
<rect x="-4.46094" y="21.0657" width="17.4961" height="17.4961" rx="1.84124" transform="rotate(-15 -4.46094 21.0657)" fill="#5C42FB"/>
<rect x="16.5371" y="21.0657" width="17.4961" height="17.4961" rx="1.84124" transform="rotate(-15 16.5371 21.0657)" fill="#5C42FB"/>
<rect x="16.5371" y="0.067627" width="17.4961" height="17.4961" rx="1.84124" transform="rotate(-15 16.5371 0.067627)" fill="#5C42FB"/>
<rect x="-4.46094" y="0.067627" width="17.4961" height="17.4961" rx="1.84124" transform="rotate(-15 -4.46094 0.067627)" fill="#5C42FB"/>
</g>
</svg>
