<svg width="162" height="39" viewBox="0 0 162 39" fill="none" xmlns="http://www.w3.org/2000/svg">
<path d="M152.062 29.6615C150.384 29.6615 148.914 29.3053 147.65 28.5929C146.386 27.8576 145.409 26.835 144.72 25.5251C144.03 24.2152 143.686 22.6755 143.686 20.9061C143.686 19.1596 144.03 17.6314 144.72 16.3215C145.409 14.9887 146.386 13.9545 147.65 13.2192C148.914 12.4608 150.384 12.0817 152.062 12.0817C153.762 12.0817 155.233 12.4608 156.474 13.2192C157.738 13.9775 158.715 15.0231 159.404 16.356C160.093 17.6659 160.438 19.1711 160.438 20.8716C160.438 21.1244 160.427 21.3772 160.404 21.6299C160.404 21.8597 160.381 22.0551 160.335 22.2159H147.374V18.8378H156.922L156.233 20.4579C156.233 19.0332 155.888 17.8727 155.199 16.9764C154.532 16.0802 153.487 15.6321 152.062 15.6321C150.821 15.6321 149.821 16.0228 149.063 16.8041C148.305 17.5624 147.925 18.5851 147.925 19.872V21.6989C147.925 23.0547 148.305 24.1233 149.063 24.9046C149.844 25.663 150.901 26.0421 152.234 26.0421C153.406 26.0421 154.325 25.8008 154.992 25.3183C155.658 24.8357 156.233 24.2382 156.715 23.5258L159.852 25.3183C159.094 26.7201 158.06 27.8001 156.75 28.5585C155.463 29.2938 153.9 29.6615 152.062 29.6615Z" fill="#0B0B0B"/>
<path d="M136.517 12.4608L137.654 17.1143V29.3168H133.139V12.4608H136.517ZM136.724 19.4238L135.896 19.0447V15.5976L136.207 15.2185C136.459 14.8048 136.838 14.3567 137.344 13.8741C137.873 13.3915 138.47 12.9779 139.137 12.6332C139.826 12.2655 140.538 12.0817 141.274 12.0817C141.641 12.0817 141.975 12.1046 142.273 12.1506C142.572 12.1966 142.802 12.277 142.963 12.3919V16.4939H141.86C140.366 16.4939 139.217 16.7352 138.413 17.2177C137.608 17.6773 137.045 18.4127 136.724 19.4238Z" fill="#0B0B0B"/>
<path d="M119.67 29.7304C118.406 29.7304 117.395 29.5351 116.637 29.1444C115.878 28.7538 115.292 28.2367 114.879 27.5933C114.488 26.9269 114.224 26.1685 114.086 25.3182C113.948 24.468 113.879 23.5832 113.879 22.664V12.4608H118.395V22.6985C118.395 23.7326 118.613 24.422 119.049 24.7667C119.509 25.1114 120.049 25.2838 120.67 25.2838C121.244 25.2838 121.819 25.1804 122.393 24.9735C122.968 24.7667 123.508 24.468 124.013 24.0773C124.542 23.6637 124.978 23.1926 125.323 22.664L125.875 25.0425H124.772V12.4608H129.287V29.3168H125.909L124.978 26.1111L126.426 26.1455C125.852 26.8119 125.197 27.4209 124.461 27.9724C123.749 28.524 122.979 28.9606 122.152 29.2823C121.347 29.5811 120.52 29.7304 119.67 29.7304Z" fill="#0B0B0B"/>
<path d="M107.923 29.627C106.199 29.627 104.832 29.1789 103.821 28.2827C102.833 27.3634 102.338 25.9042 102.338 23.9049V12.6676L102.27 12.4608L103.2 8.4967H106.854V23.181C106.854 23.9164 107.026 24.4565 107.371 24.8012C107.739 25.1229 108.198 25.2837 108.75 25.2837C109.118 25.2837 109.451 25.2608 109.75 25.2148C110.048 25.1459 110.313 25.0769 110.542 25.008V29.2134C110.175 29.3512 109.784 29.4546 109.37 29.5236C108.957 29.5925 108.474 29.627 107.923 29.627ZM99.7188 16.6317V12.4608H110.542V16.6317H99.7188Z" fill="#0B0B0B"/>
<path d="M92.0054 12.0817C93.1544 12.0817 94.0736 12.277 94.763 12.6677C95.4754 13.0583 96.0039 13.5869 96.3486 14.2533C96.7163 14.9197 96.9576 15.6781 97.0725 16.5283C97.1874 17.3556 97.2448 18.2174 97.2448 19.1136V29.3168H92.7292V19.0791C92.7292 18.045 92.5224 17.3556 92.1088 17.0109C91.7181 16.6662 91.2125 16.4939 90.5921 16.4939C90.0176 16.4939 89.4316 16.6088 88.8341 16.8386C88.2366 17.0454 87.6736 17.3556 87.145 17.7693C86.6395 18.1599 86.2029 18.608 85.8352 19.1136L85.2492 16.7696H86.3867V29.3168H81.8711V12.4608H85.2492L86.1799 15.701L84.7321 15.6321C85.3296 14.9427 86.0075 14.3337 86.7659 13.8052C87.5472 13.2766 88.3745 12.863 89.2477 12.5642C90.121 12.2425 91.0402 12.0817 92.0054 12.0817Z" fill="#0B0B0B"/>
<path d="M70.7337 29.6615C69.0561 29.6615 67.5854 29.3053 66.3215 28.5929C65.0576 27.8576 64.0809 26.835 63.3915 25.5251C62.7021 24.2152 62.3574 22.6755 62.3574 20.9061C62.3574 19.1596 62.7021 17.6314 63.3915 16.3215C64.0809 14.9887 65.0576 13.9545 66.3215 13.2192C67.5854 12.4608 69.0561 12.0817 70.7337 12.0817C72.4342 12.0817 73.905 12.4608 75.1459 13.2192C76.4098 13.9775 77.3865 15.0231 78.0759 16.356C78.7653 17.6659 79.11 19.1711 79.11 20.8716C79.11 21.1244 79.0985 21.3772 79.0755 21.6299C79.0755 21.8597 79.0525 22.0551 79.0066 22.2159H66.0457V18.8378H75.594L74.9046 20.4579C74.9046 19.0332 74.5599 17.8727 73.8705 16.9764C73.2041 16.0802 72.1585 15.6321 70.7337 15.6321C69.4928 15.6321 68.4931 16.0228 67.7348 16.8041C66.9764 17.5624 66.5973 18.5851 66.5973 19.872V21.6989C66.5973 23.0547 66.9764 24.1233 67.7348 24.9046C68.5161 25.663 69.5732 26.0421 70.9061 26.0421C72.078 26.0421 72.9973 25.8008 73.6637 25.3183C74.3301 24.8357 74.9046 24.2382 75.3872 23.5258L78.524 25.3183C77.7656 26.7201 76.7315 27.8001 75.4217 28.5585C74.1348 29.2938 72.5721 29.6615 70.7337 29.6615Z" fill="#0B0B0B"/>
<path d="M61.6657 12.4608L55.4955 29.3168H51.1523L44.6719 12.4608H49.4288L53.841 25.3527H52.7724L57.0122 12.4608H61.6657Z" fill="#0B0B0B"/>
<path fill-rule="evenodd" clip-rule="evenodd" d="M12.2325 2.24756C11.645 2.24756 11.1688 2.72377 11.1688 3.31121V13.4159H11.1683C5.00021 13.4159 0 18.4161 0 24.5842C0 30.7522 5.00022 35.7525 11.1683 35.7525H21.2729C21.8604 35.7525 22.3366 35.2762 22.3366 34.6888V24.5841H22.3371C28.5052 24.5841 33.5054 19.5839 33.5054 13.4158C33.5054 7.24777 28.5052 2.24756 22.3371 2.24756H12.2325ZM22.3366 24.5841V14.4795C22.3366 13.8921 21.8604 13.4159 21.2729 13.4159H11.1688V23.5205C11.1688 24.1079 11.645 24.5841 12.2325 24.5841H22.3366Z" fill="#FFC224"/>
<path d="M12.1118 2.24756C11.5905 2.24756 11.168 2.67011 11.168 3.19136L11.168 13.4158H21.3925C21.9137 13.4158 22.3363 13.8384 22.3363 14.3596L22.3363 24.5841C28.5043 24.5841 33.5045 19.5839 33.5045 13.4158C33.5045 7.24777 28.5043 2.24756 22.3363 2.24756H12.1118Z" fill="#FFC224"/>
</svg>
