<svg width="642" height="605" viewBox="0 0 642 605" fill="none" xmlns="http://www.w3.org/2000/svg">
<path d="M0 0H641.752V604.326H0V0Z" fill="#1C92FF"/>
<rect x="119.941" y="160.487" width="448.809" height="337.587" rx="22" fill="#0B0B0B"/>
<rect x="95.4707" y="132.369" width="450.809" height="339.587" rx="35" fill="white" stroke="#0B0B0B" stroke-width="2"/>
<rect x="213.812" y="358.874" width="101.702" height="31.2575" rx="15.6287" fill="#F1F0EE"/>
<rect x="210.842" y="353.848" width="98.7021" height="28.2575" rx="14.1287" stroke="#0B0B0B" stroke-width="3"/>
<rect x="334.812" y="358.874" width="101.702" height="31.2575" rx="15.6287" fill="#F1F0EE"/>
<rect x="331.842" y="353.848" width="98.7021" height="28.2575" rx="14.1287" stroke="#0B0B0B" stroke-width="3"/>
<path d="M392.216 247.559C390.539 247.559 389.068 247.203 387.804 246.49C386.54 245.755 385.563 244.732 384.874 243.423C384.185 242.113 383.84 240.573 383.84 238.804C383.84 237.057 384.185 235.529 384.874 234.219C385.563 232.886 386.54 231.852 387.804 231.117C389.068 230.358 390.539 229.979 392.216 229.979C393.917 229.979 395.387 230.358 396.628 231.117C397.892 231.875 398.869 232.921 399.558 234.253C400.248 235.563 400.592 237.069 400.592 238.769C400.592 239.022 400.581 239.275 400.558 239.527C400.558 239.757 400.535 239.953 400.489 240.113H387.528V236.735H397.076L396.387 238.355C396.387 236.931 396.042 235.77 395.353 234.874C394.686 233.978 393.641 233.53 392.216 233.53C390.975 233.53 389.976 233.92 389.217 234.702C388.459 235.46 388.08 236.483 388.08 237.769V239.596C388.08 240.952 388.459 242.021 389.217 242.802C389.999 243.56 391.056 243.94 392.388 243.94C393.56 243.94 394.48 243.698 395.146 243.216C395.813 242.733 396.387 242.136 396.87 241.423L400.006 243.216C399.248 244.618 398.214 245.698 396.904 246.456C395.617 247.191 394.055 247.559 392.216 247.559Z" fill="#0B0B0B"/>
<path d="M376.671 230.358L377.809 235.012V247.214H373.293V230.358H376.671ZM376.878 237.321L376.051 236.942V233.495L376.361 233.116C376.614 232.702 376.993 232.254 377.498 231.772C378.027 231.289 378.624 230.875 379.291 230.531C379.98 230.163 380.693 229.979 381.428 229.979C381.796 229.979 382.129 230.002 382.428 230.048C382.726 230.094 382.956 230.174 383.117 230.289V234.391H382.014C380.52 234.391 379.371 234.633 378.567 235.115C377.763 235.575 377.2 236.31 376.878 237.321Z" fill="#0B0B0B"/>
<path d="M359.824 247.628C358.56 247.628 357.549 247.433 356.791 247.042C356.032 246.651 355.446 246.134 355.033 245.491C354.642 244.824 354.378 244.066 354.24 243.216C354.102 242.365 354.033 241.481 354.033 240.561V230.358H358.549V240.596C358.549 241.63 358.767 242.319 359.204 242.664C359.663 243.009 360.203 243.181 360.824 243.181C361.398 243.181 361.973 243.078 362.547 242.871C363.122 242.664 363.662 242.365 364.167 241.975C364.696 241.561 365.133 241.09 365.477 240.561L366.029 242.94H364.926V230.358H369.441V247.214H366.063L365.133 244.009L366.58 244.043C366.006 244.709 365.351 245.318 364.616 245.87C363.903 246.421 363.133 246.858 362.306 247.18C361.502 247.479 360.674 247.628 359.824 247.628Z" fill="#0B0B0B"/>
<path d="M348.077 247.524C346.353 247.524 344.986 247.076 343.975 246.18C342.987 245.261 342.493 243.802 342.493 241.802V230.565L342.424 230.358L343.355 226.394H347.008V241.079C347.008 241.814 347.181 242.354 347.525 242.699C347.893 243.02 348.353 243.181 348.904 243.181C349.272 243.181 349.605 243.158 349.904 243.112C350.203 243.043 350.467 242.974 350.697 242.905V247.111C350.329 247.249 349.938 247.352 349.525 247.421C349.111 247.49 348.629 247.524 348.077 247.524ZM339.873 234.529V230.358H350.697V234.529H339.873Z" fill="#0B0B0B"/>
<path d="M332.16 229.979C333.309 229.979 334.228 230.174 334.917 230.565C335.63 230.956 336.158 231.484 336.503 232.151C336.871 232.817 337.112 233.576 337.227 234.426C337.342 235.253 337.399 236.115 337.399 237.011V247.214H332.884V236.977C332.884 235.942 332.677 235.253 332.263 234.908C331.872 234.564 331.367 234.391 330.746 234.391C330.172 234.391 329.586 234.506 328.988 234.736C328.391 234.943 327.828 235.253 327.299 235.667C326.794 236.057 326.357 236.506 325.989 237.011L325.403 234.667H326.541V247.214H322.025V230.358H325.403L326.334 233.599L324.886 233.53C325.484 232.84 326.162 232.231 326.92 231.703C327.701 231.174 328.529 230.76 329.402 230.462C330.275 230.14 331.194 229.979 332.16 229.979Z" fill="#0B0B0B"/>
<path d="M310.888 247.559C309.21 247.559 307.74 247.203 306.476 246.49C305.212 245.755 304.235 244.732 303.546 243.423C302.856 242.113 302.512 240.573 302.512 238.804C302.512 237.057 302.856 235.529 303.546 234.219C304.235 232.886 305.212 231.852 306.476 231.117C307.74 230.358 309.21 229.979 310.888 229.979C312.589 229.979 314.059 230.358 315.3 231.117C316.564 231.875 317.541 232.921 318.23 234.253C318.92 235.563 319.264 237.069 319.264 238.769C319.264 239.022 319.253 239.275 319.23 239.527C319.23 239.757 319.207 239.953 319.161 240.113H306.2V236.735H315.748L315.059 238.355C315.059 236.931 314.714 235.77 314.025 234.874C313.358 233.978 312.313 233.53 310.888 233.53C309.647 233.53 308.647 233.92 307.889 234.702C307.131 235.46 306.752 236.483 306.752 237.769V239.596C306.752 240.952 307.131 242.021 307.889 242.802C308.67 243.56 309.727 243.94 311.06 243.94C312.232 243.94 313.152 243.698 313.818 243.216C314.484 242.733 315.059 242.136 315.541 241.423L318.678 243.216C317.92 244.618 316.886 245.698 315.576 246.456C314.289 247.191 312.726 247.559 310.888 247.559Z" fill="#0B0B0B"/>
<path d="M301.82 230.358L295.65 247.214H291.307L284.826 230.358H289.583L293.995 243.25H292.927L297.167 230.358H301.82Z" fill="#0B0B0B"/>
<path fill-rule="evenodd" clip-rule="evenodd" d="M252.387 220.145C251.799 220.145 251.323 220.621 251.323 221.209V231.313H251.323C245.155 231.313 240.154 236.314 240.154 242.482C240.154 248.65 245.155 253.65 251.323 253.65H261.427C262.015 253.65 262.491 253.174 262.491 252.586V242.482H262.491C268.659 242.482 273.66 237.481 273.66 231.313C273.66 225.145 268.659 220.145 262.491 220.145H252.387ZM262.491 242.482V232.377C262.491 231.79 262.015 231.313 261.427 231.313H251.323V241.418C251.323 242.005 251.799 242.482 252.387 242.482H262.491Z" fill="#FFC224"/>
<path d="M252.266 220.145C251.745 220.145 251.322 220.568 251.322 221.089L251.322 231.313H261.547C262.068 231.313 262.491 231.736 262.491 232.257L262.491 242.482C268.659 242.482 273.659 237.481 273.659 231.313C273.659 225.145 268.659 220.145 262.491 220.145H252.266Z" fill="#FFC224"/>
<rect x="169.576" y="285.31" width="302.598" height="46.9696" rx="23.4848" fill="white" stroke="#0B0B0B" stroke-width="3"/>
<path d="M193.581 318.213C199.378 318.213 204.077 313.513 204.077 307.716C204.077 301.919 199.378 297.22 193.581 297.22C187.783 297.22 183.084 301.919 183.084 307.716C183.084 313.513 187.783 318.213 193.581 318.213Z" fill="white" stroke="#0B0B0B" stroke-width="3" stroke-linecap="round"/>
<path d="M202.35 316.171L206.831 320.37Z" fill="white"/>
<path d="M202.35 316.171L206.831 320.37" stroke="#0B0B0B" stroke-width="3" stroke-linecap="round"/>
<circle cx="125.293" cy="160.487" r="5.91196" fill="#FF4A60"/>
<circle cx="147.336" cy="160.487" r="5.91196" fill="#FFC431"/>
<circle cx="169.371" cy="160.487" r="5.91196" fill="#81E644"/>
<circle cx="123.961" cy="158.888" r="6.91196" stroke="#0B0B0B" stroke-width="2"/>
<circle cx="146.004" cy="158.888" r="6.91196" stroke="#0B0B0B" stroke-width="2"/>
<circle cx="168.039" cy="158.888" r="6.91196" stroke="#0B0B0B" stroke-width="2"/>
<line x1="224.275" y1="308.312" x2="299.548" y2="308.312" stroke="#0B0B0B" stroke-width="3" stroke-linecap="round"/>
</svg>
