<svg width="382" height="328" viewBox="0 0 382 328" fill="none" xmlns="http://www.w3.org/2000/svg">
<path d="M0 0H382V327.797H0V0Z" fill="#F1F0EE"/>
<rect x="79.5641" y="70.8457" width="235.66" height="208.346" rx="18" fill="#0B0B0B"/>
<rect x="70.033" y="61.3147" width="232.66" height="205.346" rx="16.5" fill="white" stroke="#0B0B0B" stroke-width="3"/>
<line x1="88.0046" y1="233.002" x2="141.849" y2="233.002" stroke="#0B0B0B" stroke-width="3" stroke-linecap="round"/>
<line x1="94.1459" y1="240.755" x2="135.708" y2="240.755" stroke="#0B0B0B" stroke-width="3" stroke-linecap="round"/>
<circle cx="114.926" cy="212.759" r="9.14367" stroke="#0B0B0B" stroke-width="3"/>
<line x1="158.87" y1="233.002" x2="212.715" y2="233.002" stroke="#0B0B0B" stroke-width="3" stroke-linecap="round"/>
<line x1="165.012" y1="240.755" x2="206.573" y2="240.755" stroke="#0B0B0B" stroke-width="3" stroke-linecap="round"/>
<circle cx="191.288" cy="216.719" r="10.6437" fill="#1C92FF"/>
<circle cx="185.792" cy="212.759" r="9.14367" stroke="#0B0B0B" stroke-width="3"/>
<line x1="229.736" y1="233.002" x2="283.581" y2="233.002" stroke="#0B0B0B" stroke-width="3" stroke-linecap="round"/>
<line x1="235.878" y1="240.755" x2="277.439" y2="240.755" stroke="#0B0B0B" stroke-width="3" stroke-linecap="round"/>
<circle cx="256.658" cy="212.759" r="9.14367" stroke="#0B0B0B" stroke-width="3"/>
<line x1="71.0759" y1="87.1543" x2="301.803" y2="87.1543" stroke="#0B0B0B" stroke-width="3"/>
<circle cx="87.067" cy="74.2848" r="5.00888" fill="#FF4A60"/>
<circle cx="102.136" cy="74.2848" r="5.00888" fill="#FFC224"/>
<circle cx="117.206" cy="74.2848" r="5.00888" fill="#81E644"/>
<rect x="201.932" y="113.312" width="80.8034" height="72.945" rx="10" fill="#1C92FF"/>
<rect x="194.523" y="106.922" width="80.4379" height="70.1947" rx="8.5" stroke="#0B0B0B" stroke-width="3"/>
<line x1="89.2983" y1="117.311" x2="134.691" y2="117.311" stroke="#0B0B0B" stroke-width="3" stroke-linecap="round"/>
<line x1="89.2983" y1="130.18" x2="169.349" y2="130.18" stroke="#0B0B0B" stroke-width="3" stroke-linecap="round"/>
<line x1="89.2983" y1="143.05" x2="153.831" y2="143.05" stroke="#0B0B0B" stroke-width="3" stroke-linecap="round"/>
<rect x="87.7983" y="157.249" width="43.1664" height="15.0115" rx="4" fill="#0B0B0B"/>
<path d="M295.527 186.162L313.376 226.943C313.598 227.36 313.956 227.66 314.405 227.807C314.854 227.953 315.374 227.938 315.9 227.764C316.425 227.59 316.932 227.265 317.357 226.829C317.782 226.394 318.106 225.868 318.287 225.317L325.149 207.116L341.882 197.198C342.392 196.924 342.854 196.514 343.209 196.02C343.564 195.526 343.796 194.97 343.876 194.423C343.957 193.875 343.881 193.36 343.659 192.943C343.437 192.527 343.079 192.226 342.63 192.08L299.369 181.584C298.872 181.487 298.315 181.561 297.769 181.797C297.223 182.033 296.712 182.421 296.301 182.91C295.89 183.4 295.597 183.971 295.459 184.549C295.322 185.128 295.345 185.689 295.527 186.162V186.162Z" fill="#0B0B0B"/>
<path d="M288.55 189.742L306.399 230.523C306.621 230.94 306.979 231.241 307.428 231.387C307.877 231.533 308.397 231.518 308.922 231.344C309.448 231.17 309.955 230.845 310.38 230.41C310.804 229.974 311.128 229.448 311.309 228.898L318.171 210.697L334.904 200.779C335.415 200.504 335.877 200.094 336.232 199.6C336.587 199.106 336.819 198.55 336.899 198.003C336.979 197.455 336.903 196.941 336.681 196.524C336.459 196.107 336.101 195.807 335.652 195.661L292.391 185.164C291.894 185.067 291.337 185.141 290.791 185.377C290.245 185.613 289.735 186.001 289.323 186.491C288.912 186.981 288.62 187.551 288.482 188.13C288.344 188.708 288.368 189.269 288.55 189.742V189.742Z" fill="#FFC224" stroke="#0B0B0B" stroke-width="3" stroke-linecap="round" stroke-linejoin="round"/>
</svg>
