<svg width="177" height="41" viewBox="0 0 177 41" fill="none" xmlns="http://www.w3.org/2000/svg">
<path d="M170.177 32.6779C170.657 31.9339 170.933 31.1179 171.005 30.2299C171.077 29.3419 171.113 28.4659 171.113 27.6019C170.417 28.4899 169.565 29.1139 168.557 29.4739C167.549 29.8339 166.457 30.0139 165.281 30.0139C163.913 30.0139 162.725 29.8099 161.717 29.4019C160.733 28.9939 159.953 28.3699 159.377 27.5299C158.801 26.7619 158.405 25.8619 158.189 24.8299C157.973 23.7739 157.865 22.6339 157.865 21.4099V10.7539H162.941V20.7979C162.941 21.4459 162.989 22.0819 163.085 22.7059C163.205 23.3059 163.445 23.8099 163.805 24.2179C164.381 25.0819 165.425 25.5139 166.937 25.5139C167.657 25.5139 168.329 25.3699 168.953 25.0819C169.577 24.7699 170.069 24.2899 170.429 23.6419C170.741 23.0899 170.933 22.5139 171.005 21.9139C171.077 21.2899 171.113 20.6179 171.113 19.8979V10.7539H176.225V26.3419C176.225 27.2059 176.213 28.0939 176.189 29.0059C176.189 29.8939 176.117 30.7699 175.973 31.6339C175.853 32.4979 175.625 33.3379 175.289 34.1539C174.953 34.9699 174.485 35.7259 173.885 36.4219C173.045 37.3819 171.941 38.1499 170.573 38.7259C169.229 39.3019 167.609 39.5779 165.713 39.5539C164.321 39.5779 162.941 39.3859 161.573 38.9779C160.205 38.5939 158.945 38.0299 157.793 37.2859L159.413 32.9659C160.037 33.4219 160.865 33.8419 161.897 34.2259C162.953 34.6099 164.189 34.8019 165.605 34.8019C166.757 34.8019 167.693 34.6099 168.413 34.2259C169.157 33.8659 169.745 33.3499 170.177 32.6779Z" fill="white"/>
<path d="M146.763 25.5139C147.723 25.5139 148.479 25.2859 149.031 24.8299C149.607 24.3739 149.955 23.8579 150.075 23.2819H155.403C155.235 24.5059 154.887 25.5379 154.359 26.3779C153.831 27.2179 153.171 27.9139 152.379 28.4659C151.611 29.0179 150.735 29.4139 149.751 29.6539C148.767 29.8939 147.747 30.0139 146.691 30.0139C145.107 30.0139 143.727 29.7979 142.551 29.3659C141.399 28.9099 140.439 28.2619 139.671 27.4219C138.903 26.5579 138.315 25.5259 137.907 24.3259C137.523 23.1019 137.331 21.7339 137.331 20.2219C137.331 18.7579 137.547 17.4139 137.979 16.1899C138.411 14.9659 139.023 13.9219 139.815 13.0579C140.631 12.1939 141.627 11.5339 142.803 11.0779C143.979 10.5979 145.323 10.3579 146.835 10.3579C147.939 10.3579 148.971 10.4899 149.931 10.7539C150.915 11.0179 151.779 11.4259 152.523 11.9779C153.291 12.5299 153.915 13.2379 154.395 14.1019C154.899 14.9419 155.235 15.9499 155.403 17.1259H150.075C149.955 16.5499 149.595 16.0339 148.995 15.5779C148.419 15.1219 147.663 14.8939 146.727 14.8939C145.935 14.8939 145.251 15.0379 144.675 15.3259C144.099 15.6139 143.643 16.0099 143.307 16.5139C142.971 17.0179 142.731 17.5939 142.587 18.2419C142.443 18.8899 142.371 19.5739 142.371 20.2939C142.371 21.0619 142.455 21.7699 142.623 22.4179C142.791 23.0419 143.043 23.5939 143.379 24.0739C143.715 24.5299 144.159 24.8899 144.711 25.1539C145.287 25.3939 145.971 25.5139 146.763 25.5139Z" fill="white"/>
<path d="M121.876 13.1659C123.412 11.3179 125.308 10.3819 127.564 10.3579C128.788 10.3339 129.868 10.5379 130.804 10.9699C131.74 11.3779 132.496 11.9419 133.072 12.6619C133.768 13.5019 134.248 14.4859 134.512 15.6139C134.776 16.7179 134.908 17.9539 134.908 19.3219V29.7259H129.796V19.7179C129.796 19.0459 129.724 18.4099 129.58 17.8099C129.46 17.1859 129.244 16.6579 128.932 16.2259C128.62 15.7699 128.2 15.4339 127.672 15.2179C127.168 15.0019 126.592 14.8939 125.944 14.8939C125.128 14.9179 124.432 15.0979 123.856 15.4339C123.304 15.7699 122.884 16.2019 122.596 16.7299C122.308 17.2339 122.104 17.8099 121.984 18.4579C121.888 19.0819 121.84 19.7179 121.84 20.3659V29.7259H116.764V10.7539H121.624L121.876 13.1659Z" fill="white"/>
<path d="M105.347 25.8739C106.067 25.8739 106.679 25.7659 107.183 25.5499C107.711 25.3099 108.143 24.9259 108.479 24.3979H113.807C113.543 25.3819 113.135 26.2339 112.583 26.9539C112.055 27.6739 111.407 28.2619 110.639 28.7179C109.895 29.1739 109.067 29.5099 108.155 29.7259C107.243 29.9179 106.283 30.0139 105.275 30.0139C102.203 30.0139 99.8745 29.1499 98.2905 27.4219C96.7305 25.6939 95.9505 23.2699 95.9505 20.1499C95.9505 18.7339 96.1545 17.4259 96.5625 16.2259C96.9945 15.0259 97.5945 13.9939 98.3625 13.1299C99.1305 12.2419 100.079 11.5579 101.207 11.0779C102.359 10.5979 103.667 10.3579 105.131 10.3579C106.835 10.3579 108.311 10.6579 109.559 11.2579C110.807 11.8579 111.791 12.6859 112.511 13.7419C113.255 14.7739 113.747 15.9859 113.987 17.3779C114.251 18.7699 114.251 20.2579 113.987 21.8419H101.027C101.123 22.9699 101.519 23.9299 102.215 24.7219C102.911 25.4899 103.955 25.8739 105.347 25.8739ZM109.271 18.3499C109.271 17.7499 109.163 17.2219 108.947 16.7659C108.731 16.2859 108.443 15.9019 108.083 15.6139C107.723 15.3019 107.291 15.0739 106.787 14.9299C106.307 14.7859 105.803 14.7139 105.275 14.7139C104.003 14.7379 103.007 15.0859 102.287 15.7579C101.591 16.4059 101.183 17.2699 101.063 18.3499H109.271Z" fill="white"/>
<path d="M88.2952 27.7819C87.5752 28.5979 86.7112 29.1739 85.7032 29.5099C84.6952 29.8459 83.6032 30.0139 82.4272 30.0139C81.2512 30.0139 80.0992 29.8339 78.9712 29.4739C77.8672 29.0899 76.9072 28.4779 76.0912 27.6379C75.1792 26.6779 74.5432 25.5739 74.1832 24.3259C73.8232 23.0779 73.6432 21.7939 73.6432 20.4739C73.6432 17.3539 74.5072 14.8579 76.2352 12.9859C76.9792 12.1699 77.9392 11.5339 79.1152 11.0779C80.3152 10.6219 81.5992 10.4059 82.9672 10.4299C83.8552 10.3819 84.8152 10.5379 85.8472 10.8979C86.8792 11.2579 87.7672 11.8579 88.5112 12.6979L89.0512 10.7539H93.4432V28.5379C93.4432 29.3059 93.3952 30.0619 93.2992 30.8059C93.2272 31.5739 93.0952 32.3059 92.9032 33.0019C92.7112 33.7219 92.4232 34.4059 92.0392 35.0539C91.6072 35.8459 91.0792 36.5179 90.4552 37.0699C89.8552 37.6219 89.1832 38.0779 88.4392 38.4379C87.6952 38.8219 86.9032 39.0979 86.0632 39.2659C85.2232 39.4339 84.3712 39.5179 83.5072 39.5179C82.4032 39.5179 81.3472 39.3859 80.3392 39.1219C79.3312 38.8819 78.4072 38.4739 77.5672 37.8979C76.7512 37.3459 76.0672 36.6379 75.5152 35.7739C74.9872 34.9099 74.6392 33.8779 74.4712 32.6779H79.8712C79.9672 33.2539 80.3512 33.7699 81.0232 34.2259C81.6952 34.6819 82.5112 34.9099 83.4712 34.9099C84.5032 34.9099 85.3432 34.7059 85.9912 34.2979C86.6632 33.8899 87.1672 33.3499 87.5032 32.6779C87.8392 32.0059 88.0552 31.2379 88.1512 30.3739C88.2472 29.5099 88.2952 28.6459 88.2952 27.7819ZM83.5792 25.5139C84.3712 25.5139 85.0672 25.3699 85.6672 25.0819C86.2912 24.7939 86.7952 24.4099 87.1792 23.9299C87.5632 23.4259 87.8512 22.8499 88.0432 22.2019C88.2352 21.5299 88.3312 20.8219 88.3312 20.0779C88.3312 18.5899 87.9112 17.3659 87.0712 16.4059C86.2552 15.4219 85.0792 14.9179 83.5432 14.8939C82.7512 14.8939 82.0432 15.0379 81.4192 15.3259C80.8192 15.6139 80.3152 15.9979 79.9072 16.4779C79.5232 16.9579 79.2352 17.5219 79.0432 18.1699C78.8512 18.8179 78.7552 19.5139 78.7552 20.2579C78.7552 21.0499 78.8512 21.7699 79.0432 22.4179C79.2592 23.0419 79.5712 23.5939 79.9792 24.0739C80.3872 24.5299 80.8912 24.8899 81.4912 25.1539C82.0912 25.3939 82.7872 25.5139 83.5792 25.5139Z" fill="white"/>
<path d="M66.3985 27.3859C65.6785 28.3459 64.8025 29.0299 63.7705 29.4379C62.7385 29.8459 61.5385 30.0379 60.1705 30.0139C58.4185 29.9659 56.9545 29.4739 55.7785 28.5379C55.1545 28.0099 54.6625 27.3859 54.3025 26.6659C53.9665 25.9219 53.7985 25.0459 53.7985 24.0379C53.8225 23.0059 54.0505 22.0939 54.4825 21.3019C54.9385 20.4859 55.6225 19.8139 56.5345 19.2859C57.3025 18.8779 58.1665 18.5899 59.1265 18.4219C60.1105 18.2539 61.1785 18.1699 62.3305 18.1699H66.2185C66.2905 16.9939 66.0145 16.1179 65.3905 15.5419C64.7905 14.9419 63.9385 14.6299 62.8345 14.6059C62.4745 14.6059 62.1025 14.6299 61.7185 14.6779C61.3345 14.7259 60.9745 14.8219 60.6385 14.9659C60.3265 15.1099 60.0505 15.3139 59.8105 15.5779C59.5945 15.8179 59.4505 16.1179 59.3785 16.4779H54.1585C54.2785 15.3259 54.5905 14.3659 55.0945 13.5979C55.6225 12.8059 56.2825 12.1699 57.0745 11.6899C57.8665 11.2099 58.7425 10.8739 59.7025 10.6819C60.6865 10.4659 61.6945 10.3579 62.7265 10.3579C63.3025 10.3579 63.8905 10.3939 64.4905 10.4659C65.0905 10.5139 65.6785 10.6339 66.2545 10.8259C66.8305 10.9939 67.3705 11.2339 67.8745 11.5459C68.4025 11.8339 68.8945 12.2179 69.3505 12.6979C70.1665 13.6339 70.6705 14.7139 70.8625 15.9379C71.0785 17.1379 71.1745 18.3139 71.1505 19.4659V29.7259H66.5065L66.3985 27.3859ZM66.2185 21.3379H62.5105C62.1505 21.3379 61.7425 21.3739 61.2865 21.4459C60.8305 21.5179 60.4345 21.6499 60.0985 21.8419C59.7625 22.0339 59.4745 22.2859 59.2345 22.5979C59.0185 22.9099 58.9105 23.2939 58.9105 23.7499C58.9105 24.1339 58.9825 24.4699 59.1265 24.7579C59.2945 25.0459 59.4985 25.2859 59.7385 25.4779C60.0025 25.6699 60.3145 25.8259 60.6745 25.9459C61.0345 26.0419 61.3945 26.0899 61.7545 26.0899C62.4505 26.1139 63.0985 25.9939 63.6985 25.7299C64.3225 25.4659 64.8625 25.0939 65.3185 24.6139C65.6065 24.2299 65.8225 23.7979 65.9665 23.3179C66.1345 22.8139 66.2185 22.1539 66.2185 21.3379Z" fill="white"/>
<path fill-rule="evenodd" clip-rule="evenodd" d="M40.0134 21.7049C39.81 25.259 38.6609 28.702 36.6754 31.6735C34.4778 34.9624 31.3542 37.5259 27.6997 39.0396C24.0452 40.5534 20.0239 40.9495 16.1442 40.1778C12.2646 39.4061 8.70096 37.5012 5.90391 34.7042C3.10686 31.9071 1.20204 28.3435 0.430339 24.4639C-0.341365 20.5842 0.0547014 16.5629 1.56845 12.9084C3.08221 9.25387 5.64566 6.13029 8.93464 3.93266C11.9061 1.94722 15.3491 0.798111 18.9032 0.594727V10.6276C17.3299 10.8086 15.8162 11.3614 14.4903 12.2474C12.8459 13.3462 11.5641 14.908 10.8072 16.7352C10.0504 18.5625 9.85234 20.5732 10.2382 22.513C10.624 24.4528 11.5765 26.2346 12.975 27.6331C14.3735 29.0317 16.1553 29.9841 18.0951 30.3699C20.035 30.7558 22.0456 30.5577 23.8729 29.8009C25.7001 29.044 27.2619 27.7623 28.3607 26.1178C29.2467 24.7919 29.7995 23.2782 29.9805 21.7049H40.0134Z" fill="white"/>
<path fill-rule="evenodd" clip-rule="evenodd" d="M30.0407 0.562012L21.8595 0.562012L21.8595 10.562H30.0407V18.7434L40.0407 18.7434L40.0407 10.562H40.0414L40.0414 0.562012L38.2114 0.562012L30.0407 0.562012Z" fill="white"/>
</svg>
