<svg width="249" height="55" viewBox="0 0 249 55" fill="none" xmlns="http://www.w3.org/2000/svg">
<path d="M232.157 20.2977H236.613L236.787 22.6303C237.368 21.7483 238.087 21.0752 238.946 20.611C239.828 20.1236 240.803 19.8799 241.87 19.8799C246.211 19.8799 248.369 22.5375 248.346 27.8526V28.7926H248.381V37.7054H243.681V28.7926H243.646C243.646 27.1215 243.356 25.961 242.776 25.3111C242.219 24.638 241.406 24.3014 240.339 24.3014C239.201 24.3014 238.331 24.6728 237.727 25.4155C237.147 26.1351 236.857 27.1795 236.857 28.5489V37.7054H232.157V20.2977Z" fill="white"/>
<path d="M220.11 38.1232C218.346 38.1232 216.767 37.7402 215.375 36.9743C213.982 36.1851 212.891 35.1058 212.102 33.7364C211.336 32.3438 210.953 30.7655 210.953 29.0015C210.953 27.2376 211.336 25.6709 212.102 24.3014C212.891 22.9088 213.97 21.8295 215.34 21.0636C216.709 20.2745 218.276 19.8799 220.04 19.8799C221.804 19.8799 223.371 20.2745 224.74 21.0636C226.133 21.8295 227.212 22.9088 227.978 24.3014C228.767 25.6709 229.162 27.2376 229.162 29.0015C229.162 30.7655 228.779 32.3438 228.013 33.7364C227.247 35.1058 226.167 36.1851 224.775 36.9743C223.405 37.7402 221.85 38.1232 220.11 38.1232ZM215.792 29.0015C215.792 30.4174 216.187 31.5779 216.976 32.4831C217.789 33.3651 218.833 33.8061 220.11 33.8061C221.363 33.8061 222.384 33.3651 223.173 32.4831C223.963 31.5779 224.357 30.4174 224.357 29.0015C224.357 27.5857 223.951 26.4368 223.139 25.5548C222.349 24.6496 221.317 24.197 220.04 24.197C218.81 24.197 217.789 24.6496 216.976 25.5548C216.187 26.4368 215.792 27.5857 215.792 29.0015Z" fill="white"/>
<path d="M202.992 20.2977H207.692V37.7054H202.992V20.2977ZM205.359 17.5473C204.617 17.5473 203.978 17.2804 203.444 16.7465C202.911 16.2127 202.644 15.586 202.644 14.8665C202.644 14.1238 202.911 13.4855 203.444 12.9516C204.001 12.4178 204.64 12.1509 205.359 12.1509C206.079 12.1509 206.705 12.4178 207.239 12.9516C207.773 13.4855 208.04 14.1238 208.04 14.8665C208.04 15.586 207.773 16.2127 207.239 16.7465C206.729 17.2804 206.102 17.5473 205.359 17.5473Z" fill="white"/>
<path d="M195.879 38.1232C193.953 38.1232 192.479 37.6474 191.458 36.6957C190.46 35.7441 189.961 34.3747 189.961 32.5875V24.2666H187.175V20.2977H189.961V14.8665H194.661V20.2977H198.978V24.2666H194.661V31.5431C194.661 32.309 194.811 32.8777 195.113 33.249C195.438 33.5972 195.926 33.7712 196.575 33.7712C197.04 33.7712 197.562 33.5624 198.142 33.1446L199.813 36.6609C199.233 37.1019 198.595 37.4501 197.898 37.7054C197.202 37.9839 196.529 38.1232 195.879 38.1232Z" fill="white"/>
<path d="M180.484 35.7209C179.51 37.3224 177.908 38.1232 175.68 38.1232C173.591 38.1232 171.966 37.659 170.806 36.7306C169.668 35.8022 169.1 34.4908 169.1 32.7964C169.1 30.9628 169.715 29.5702 170.945 28.6186C172.175 27.6669 173.916 27.1911 176.167 27.1911H180.31C179.985 25.0326 178.929 23.9533 177.142 23.9533C175.61 23.9533 174.45 24.6032 173.661 25.903L169.518 24.4755C170.075 23.1757 170.98 22.0849 172.233 21.2029C173.51 20.3209 175.146 19.8799 177.142 19.8799C179.742 19.8799 181.715 20.611 183.061 22.0733C184.407 23.5123 185.057 25.5084 185.01 28.0615L184.941 37.7054H180.554L180.484 35.7209ZM173.904 32.6572C173.904 33.1446 174.136 33.5391 174.601 33.8409C175.065 34.1194 175.703 34.2587 176.515 34.2587C177.235 34.2587 177.885 34.0846 178.465 33.7364C179.069 33.3883 179.544 32.9357 179.893 32.3786C180.241 31.8216 180.415 31.2413 180.415 30.6379H177.838C176.423 30.6379 175.413 30.8119 174.809 31.1601C174.206 31.485 173.904 31.9841 173.904 32.6572Z" fill="white"/>
<path d="M159.46 38.1232C157.649 38.1232 156.036 37.7402 154.62 36.9743C153.204 36.1851 152.09 35.1058 151.278 33.7364C150.489 32.3438 150.094 30.7655 150.094 29.0015C150.094 27.2376 150.489 25.6709 151.278 24.3014C152.067 22.9088 153.17 21.8295 154.585 21.0636C156.001 20.2745 157.603 19.8799 159.39 19.8799C161.177 19.8799 162.779 20.3209 164.194 21.2029C165.633 22.0849 166.678 23.3266 167.328 24.9281L162.906 26.4948C162.581 25.8217 162.082 25.2879 161.409 24.8933C160.736 24.4987 159.993 24.3014 159.181 24.3014C157.928 24.3014 156.906 24.7424 156.117 25.6244C155.328 26.4832 154.934 27.6089 154.934 29.0015C154.934 30.3709 155.328 31.4966 156.117 32.3786C156.93 33.2606 157.974 33.7016 159.251 33.7016C160.063 33.7016 160.806 33.4927 161.479 33.0749C162.152 32.6339 162.651 32.0537 162.976 31.3342L167.432 32.9009C166.759 34.5488 165.715 35.837 164.299 36.7654C162.883 37.6706 161.27 38.1232 159.46 38.1232Z" fill="white"/>
<path d="M142.133 20.2977H146.833V37.7054H142.133V20.2977ZM144.5 17.5473C143.758 17.5473 143.119 17.2804 142.585 16.7465C142.052 16.2127 141.785 15.586 141.785 14.8665C141.785 14.1238 142.052 13.4855 142.585 12.9516C143.143 12.4178 143.781 12.1509 144.5 12.1509C145.22 12.1509 145.847 12.4178 146.38 12.9516C146.914 13.4855 147.181 14.1238 147.181 14.8665C147.181 15.586 146.914 16.2127 146.38 16.7465C145.87 17.2804 145.243 17.5473 144.5 17.5473Z" fill="white"/>
<path d="M133.219 12.6382H137.919V37.7053H133.219V12.6382Z" fill="white"/>
<path d="M112.483 20.2977H116.939L117.113 22.6999C117.694 21.7947 118.425 21.0984 119.307 20.611C120.212 20.1236 121.245 19.8799 122.405 19.8799C123.984 19.8799 125.365 20.2512 126.548 20.994C127.755 21.7367 128.672 22.7928 129.299 24.1622C129.949 25.5316 130.274 27.1447 130.274 29.0015C130.274 30.8351 129.949 32.4483 129.299 33.8409C128.672 35.2103 127.755 36.2664 126.548 37.0091C125.365 37.7518 123.984 38.1232 122.405 38.1232C121.268 38.1232 120.258 37.8911 119.376 37.4269C118.494 36.9395 117.763 36.2548 117.183 35.3728V44.6685H112.483V20.2977ZM117.183 29.0015C117.183 30.4174 117.554 31.5779 118.297 32.4831C119.063 33.3651 120.038 33.8061 121.222 33.8061C122.428 33.8061 123.427 33.3535 124.216 32.4483C125.005 31.5431 125.399 30.3942 125.399 29.0015C125.399 27.6089 125.005 26.4716 124.216 25.5896C123.45 24.6844 122.463 24.2318 121.256 24.2318C120.049 24.2318 119.063 24.6728 118.297 25.5548C117.554 26.4368 117.183 27.5857 117.183 29.0015Z" fill="white"/>
<path d="M91.5731 20.2977H96.0294L96.2035 22.6999C96.7838 21.7947 97.5149 21.0984 98.3969 20.611C99.3021 20.1236 100.335 19.8799 101.495 19.8799C103.074 19.8799 104.455 20.2512 105.639 20.994C106.845 21.7367 107.762 22.7928 108.389 24.1622C109.039 25.5316 109.364 27.1447 109.364 29.0015C109.364 30.8351 109.039 32.4483 108.389 33.8409C107.762 35.2103 106.845 36.2664 105.639 37.0091C104.455 37.7518 103.074 38.1232 101.495 38.1232C100.358 38.1232 99.3485 37.8911 98.4665 37.4269C97.5845 36.9395 96.8534 36.2548 96.2731 35.3728V44.6685H91.5731V20.2977ZM96.2731 29.0015C96.2731 30.4174 96.6445 31.5779 97.3872 32.4831C98.1532 33.3651 99.128 33.8061 100.312 33.8061C101.519 33.8061 102.517 33.3535 103.306 32.4483C104.095 31.5431 104.49 30.3942 104.49 29.0015C104.49 27.6089 104.095 26.4716 103.306 25.5896C102.54 24.6844 101.553 24.2318 100.347 24.2318C99.1396 24.2318 98.1532 24.6728 97.3872 25.5548C96.6445 26.4368 96.2731 27.5857 96.2731 29.0015Z" fill="white"/>
<path d="M83.246 35.7209C82.2712 37.3224 80.6697 38.1232 78.4415 38.1232C76.3526 38.1232 74.7278 37.659 73.5673 36.7306C72.43 35.8022 71.8614 34.4908 71.8614 32.7964C71.8614 30.9628 72.4764 29.5702 73.7066 28.6186C74.9367 27.6669 76.6775 27.1911 78.9289 27.1911H83.0719C82.747 25.0326 81.6909 23.9533 79.9037 23.9533C78.3718 23.9533 77.2113 24.6032 76.4222 25.903L72.2791 24.4755C72.8362 23.1757 73.7414 22.0849 74.9947 21.2029C76.2713 20.3209 77.9076 19.8799 79.9037 19.8799C82.5033 19.8799 84.4762 20.611 85.8224 22.0733C87.1686 23.5123 87.8184 25.5084 87.772 28.0615L87.7024 37.7054H83.3156L83.246 35.7209ZM76.6659 32.6572C76.6659 33.1446 76.898 33.5391 77.3622 33.8409C77.8264 34.1194 78.4647 34.2587 79.2771 34.2587C79.9966 34.2587 80.6465 34.0846 81.2267 33.7364C81.8302 33.3883 82.306 32.9357 82.6542 32.3786C83.0023 31.8216 83.1764 31.2413 83.1764 30.6379H80.6C79.1842 30.6379 78.1746 30.8119 77.5711 31.1601C76.9676 31.485 76.6659 31.9841 76.6659 32.6572Z" fill="white"/>
<path fill-rule="evenodd" clip-rule="evenodd" d="M24.2606 44.2742L13.0144 44.2742C6.39308 44.2742 1.02542 38.9065 1.02542 32.2852C1.02542 26.4458 5.47588 21.6458 11.17 21.0922C11.5714 15.2457 16.4412 10.6277 22.3895 10.6277L22.7609 10.6277C25.9607 10.6277 28.8583 11.9213 30.9594 14.0141C33.7763 11.8882 37.2829 10.6277 41.0839 10.6277L41.9286 10.6277C50.7533 10.6277 57.9071 17.7815 57.9071 26.6063C57.9071 36.364 49.9969 44.2742 40.2392 44.2742L24.2608 44.2742L24.2606 44.2742Z" fill="white"/>
</svg>
