<svg width="211" height="45" viewBox="0 0 211 45" fill="none" xmlns="http://www.w3.org/2000/svg">
<path d="M208.771 21.6066L203.785 21.9134C203.7 21.4873 203.517 21.1037 203.235 20.7628C202.954 20.4134 202.583 20.1364 202.123 19.9319C201.671 19.7188 201.13 19.6123 200.5 19.6123C199.656 19.6123 198.944 19.7912 198.365 20.1492C197.785 20.4986 197.495 20.9674 197.495 21.5554C197.495 22.0242 197.683 22.4205 198.058 22.7444C198.433 23.0682 199.076 23.3282 199.988 23.5242L203.542 24.2401C205.451 24.6321 206.875 25.2628 207.812 26.1321C208.75 27.0015 209.218 28.1435 209.218 29.5583C209.218 30.8452 208.839 31.9745 208.081 32.9461C207.331 33.9177 206.299 34.6762 204.987 35.2216C203.683 35.7586 202.179 36.027 200.474 36.027C197.875 36.027 195.804 35.4858 194.261 34.4035C192.727 33.3125 191.828 31.8296 191.563 29.9546L196.92 29.6733C197.082 30.466 197.474 31.0711 198.096 31.4887C198.718 31.8978 199.515 32.1023 200.487 32.1023C201.441 32.1023 202.208 31.9191 202.788 31.5526C203.376 31.1776 203.674 30.6961 203.683 30.108C203.674 29.6137 203.465 29.2089 203.056 28.8935C202.647 28.5696 202.017 28.3225 201.164 28.152L197.764 27.4745C195.846 27.091 194.419 26.4262 193.481 25.4802C192.552 24.5341 192.088 23.3282 192.088 21.8623C192.088 20.6009 192.429 19.5142 193.11 18.6023C193.801 17.6904 194.768 16.9873 196.012 16.4929C197.265 15.9986 198.731 15.7515 200.41 15.7515C202.89 15.7515 204.842 16.2756 206.265 17.3239C207.697 18.3722 208.532 19.7998 208.771 21.6066Z" fill="white"/>
<path d="M188.556 21.6066L183.57 21.9134C183.485 21.4873 183.302 21.1037 183.021 20.7628C182.739 20.4134 182.369 20.1364 181.908 19.9319C181.457 19.7188 180.915 19.6123 180.285 19.6123C179.441 19.6123 178.729 19.7912 178.15 20.1492C177.57 20.4986 177.28 20.9674 177.28 21.5554C177.28 22.0242 177.468 22.4205 177.843 22.7444C178.218 23.0682 178.861 23.3282 179.773 23.5242L183.327 24.2401C185.236 24.6321 186.66 25.2628 187.597 26.1321C188.535 27.0015 189.003 28.1435 189.003 29.5583C189.003 30.8452 188.624 31.9745 187.866 32.9461C187.116 33.9177 186.084 34.6762 184.772 35.2216C183.468 35.7586 181.964 36.027 180.259 36.027C177.66 36.027 175.589 35.4858 174.046 34.4035C172.512 33.3125 171.613 31.8296 171.349 29.9546L176.705 29.6733C176.867 30.466 177.259 31.0711 177.881 31.4887C178.503 31.8978 179.3 32.1023 180.272 32.1023C181.226 32.1023 181.994 31.9191 182.573 31.5526C183.161 31.1776 183.459 30.6961 183.468 30.108C183.459 29.6137 183.251 29.2089 182.842 28.8935C182.432 28.5696 181.802 28.3225 180.949 28.152L177.549 27.4745C175.631 27.091 174.204 26.4262 173.266 25.4802C172.337 24.5341 171.873 23.3282 171.873 21.8623C171.873 20.6009 172.214 19.5142 172.896 18.6023C173.586 17.6904 174.553 16.9873 175.797 16.4929C177.05 15.9986 178.516 15.7515 180.195 15.7515C182.675 15.7515 184.627 16.2756 186.05 17.3239C187.482 18.3722 188.317 19.7998 188.556 21.6066Z" fill="white"/>
<path d="M159.651 36.027C157.631 36.027 155.893 35.6179 154.435 34.7998C152.986 33.9731 151.87 32.8054 151.086 31.2969C150.302 29.7799 149.91 27.9858 149.91 25.9148C149.91 23.8949 150.302 22.1222 151.086 20.5966C151.87 19.0711 152.974 17.8821 154.397 17.0299C155.829 16.1776 157.508 15.7515 159.434 15.7515C160.729 15.7515 161.935 15.9603 163.052 16.3779C164.177 16.787 165.157 17.4049 165.992 18.2316C166.836 19.0583 167.492 20.0981 167.961 21.3509C168.43 22.5952 168.664 24.0526 168.664 25.7231V27.2188H152.083V23.8438H163.538C163.538 23.0597 163.367 22.3651 163.026 21.76C162.685 21.1549 162.212 20.6819 161.607 20.341C161.011 19.9915 160.316 19.8168 159.523 19.8168C158.697 19.8168 157.964 20.0086 157.325 20.3921C156.694 20.7671 156.199 21.2742 155.842 21.9134C155.484 22.5441 155.3 23.2472 155.292 24.0228V27.2316C155.292 28.2032 155.471 29.0427 155.829 29.75C156.195 30.4574 156.711 31.0029 157.376 31.3864C158.04 31.7699 158.829 31.9617 159.741 31.9617C160.346 31.9617 160.9 31.8765 161.403 31.706C161.905 31.5356 162.336 31.2799 162.694 30.939C163.052 30.5981 163.325 30.1804 163.512 29.6861L168.549 30.0185C168.293 31.2287 167.769 32.2856 166.976 33.189C166.192 34.0839 165.178 34.7827 163.934 35.2856C162.698 35.7799 161.271 36.027 159.651 36.027Z" fill="white"/>
<path d="M133.754 24.2912V35.6435H128.308V16.0071H133.498V19.4716H133.728C134.163 18.3296 134.892 17.4262 135.914 16.7614C136.937 16.0881 138.177 15.7515 139.635 15.7515C140.998 15.7515 142.187 16.0498 143.201 16.6463C144.215 17.2429 145.004 18.0952 145.566 19.2032C146.129 20.3026 146.41 21.6151 146.41 23.1407V35.6435H140.964V24.1123C140.973 22.9106 140.666 21.9731 140.044 21.2998C139.421 20.6179 138.565 20.277 137.474 20.277C136.741 20.277 136.093 20.4347 135.531 20.75C134.977 21.0654 134.542 21.5256 134.227 22.1307C133.92 22.7273 133.762 23.4475 133.754 24.2912Z" fill="white"/>
<path d="M118.499 35.6436V16.0073H123.945V35.6436H118.499ZM121.235 13.476C120.425 13.476 119.731 13.2075 119.151 12.6706C118.58 12.1252 118.295 11.4732 118.295 10.7146C118.295 9.96464 118.58 9.32118 119.151 8.78425C119.731 8.23879 120.425 7.96606 121.235 7.96606C122.045 7.96606 122.735 8.23879 123.306 8.78425C123.886 9.32118 124.175 9.96464 124.175 10.7146C124.175 11.4732 123.886 12.1252 123.306 12.6706C122.735 13.2075 122.045 13.476 121.235 13.476Z" fill="white"/>
<path d="M114.622 21.6066L109.637 21.9134C109.551 21.4873 109.368 21.1037 109.087 20.7628C108.806 20.4134 108.435 20.1364 107.975 19.9319C107.523 19.7188 106.982 19.6123 106.351 19.6123C105.507 19.6123 104.796 19.7912 104.216 20.1492C103.637 20.4986 103.347 20.9674 103.347 21.5554C103.347 22.0242 103.534 22.4205 103.909 22.7444C104.284 23.0682 104.928 23.3282 105.84 23.5242L109.394 24.2401C111.303 24.6321 112.726 25.2628 113.664 26.1321C114.601 27.0015 115.07 28.1435 115.07 29.5583C115.07 30.8452 114.691 31.9745 113.932 32.9461C113.182 33.9177 112.151 34.6762 110.838 35.2216C109.534 35.7586 108.03 36.027 106.326 36.027C103.726 36.027 101.655 35.4858 100.112 34.4035C98.5784 33.3125 97.6792 31.8296 97.415 29.9546L102.772 29.6733C102.934 30.466 103.326 31.0711 103.948 31.4887C104.57 31.8978 105.367 32.1023 106.338 32.1023C107.293 32.1023 108.06 31.9191 108.639 31.5526C109.228 31.1776 109.526 30.6961 109.534 30.108C109.526 29.6137 109.317 29.2089 108.908 28.8935C108.499 28.5696 107.868 28.3225 107.016 28.152L103.615 27.4745C101.698 27.091 100.27 26.4262 99.3327 25.4802C98.4037 24.5341 97.9392 23.3282 97.9392 21.8623C97.9392 20.6009 98.2801 19.5142 98.9619 18.6023C99.6523 17.6904 100.62 16.9873 101.864 16.4929C103.117 15.9986 104.583 15.7515 106.262 15.7515C108.742 15.7515 110.693 16.2756 112.117 17.3239C113.549 18.3722 114.384 19.7998 114.622 21.6066Z" fill="white"/>
<path d="M88.4822 27.2829V16.0073H93.9282V35.6437H88.6995V32.0769H88.4949C88.0518 33.2275 87.3145 34.1522 86.2833 34.8511C85.2606 35.5499 84.012 35.8994 82.5376 35.8994C81.2251 35.8994 80.0702 35.6011 79.0731 35.0045C78.0759 34.4079 77.2961 33.5599 76.7336 32.4604C76.1796 31.361 75.8984 30.0443 75.8898 28.5102V16.0073H81.3359V27.5386C81.3444 28.6977 81.6555 29.6139 82.2691 30.2872C82.8827 30.9604 83.7052 31.2971 84.7364 31.2971C85.3927 31.2971 86.0063 31.1479 86.5773 30.8497C87.1484 30.5428 87.6086 30.0911 87.958 29.4945C88.316 28.8979 88.4907 28.1607 88.4822 27.2829Z" fill="white"/>
<path d="M53.1054 35.6437V9.46191H58.5514V19.3057H58.7176C58.9563 18.7773 59.3014 18.2403 59.7531 17.6949C60.2134 17.1409 60.81 16.6807 61.5429 16.3142C62.2844 15.9392 63.2048 15.7517 64.3043 15.7517C65.7361 15.7517 67.0571 16.1267 68.2673 16.8767C69.4776 17.6182 70.4449 18.7389 71.1693 20.2389C71.8938 21.7304 72.256 23.6011 72.256 25.8511C72.256 28.0415 71.9023 29.8909 71.1949 31.3994C70.496 32.8994 69.5415 34.0372 68.3313 34.8128C67.1296 35.5798 65.783 35.9633 64.2915 35.9633C63.2347 35.9633 62.3355 35.7886 61.594 35.4392C60.8611 35.0898 60.2602 34.6508 59.7915 34.1224C59.3227 33.5855 58.9648 33.0443 58.7176 32.4988H58.4747V35.6437H53.1054ZM58.4364 25.8256C58.4364 26.9932 58.5983 28.0116 58.9222 28.8809C59.246 29.7503 59.7148 30.4278 60.3284 30.9136C60.9421 31.3909 61.6878 31.6295 62.5656 31.6295C63.452 31.6295 64.202 31.3866 64.8156 30.9008C65.4293 30.4065 65.8938 29.7247 66.2091 28.8554C66.533 27.9775 66.6949 26.9676 66.6949 25.8256C66.6949 24.692 66.5372 23.6949 66.2219 22.8341C65.9065 21.9733 65.4421 21.3 64.8284 20.8142C64.2148 20.3284 63.4605 20.0855 62.5656 20.0855C61.6793 20.0855 60.9293 20.3199 60.3156 20.7886C59.7105 21.2574 59.246 21.9221 58.9222 22.7829C58.5983 23.6437 58.4364 24.6579 58.4364 25.8256Z" fill="white"/>
<path fill-rule="evenodd" clip-rule="evenodd" d="M22.0071 16.8935L27.8982 22.7846L22.289 28.3938L16.3979 22.5027L22.0071 16.8935ZM15.967 10.8535L12.2736 7.15997C12.0629 6.94929 12.0629 6.6077 12.2736 6.39702L17.5506 1.11993C17.7613 0.909244 18.1029 0.909244 18.3136 1.11993L36.3543 19.1606C38.3557 21.1621 38.3557 24.4071 36.3543 26.4086L28.329 34.4339L32.0225 38.1274C32.2332 38.3381 32.2332 38.6796 32.0225 38.8903L26.7454 44.1674C26.5347 44.3781 26.1931 44.3781 25.9824 44.1674L7.94179 26.1268C5.9403 24.1253 5.9403 20.8802 7.94179 18.8787L15.967 10.8535Z" fill="white"/>
</svg>
