<svg width="223" height="44" viewBox="0 0 223 44" fill="none" xmlns="http://www.w3.org/2000/svg">
<path d="M215.407 14.1438H220.651L213.735 33.1438C211.759 38.6158 208.529 41.0098 203.703 40.7438V36.1838C206.401 36.2218 207.769 35.0818 208.681 32.5358L200.891 14.1438H206.249L211.189 26.9118L215.407 14.1438Z" fill="white"/>
<path d="M192.06 13.6118C196.088 13.6118 199.242 16.4238 199.242 21.4778V33.1438H194.34V22.0858C194.34 19.5018 192.782 18.1718 190.578 18.1718C188.184 18.1718 186.398 19.5778 186.398 22.8838V33.1438H181.496V14.1438H186.398V16.2718C187.538 14.5618 189.514 13.6118 192.06 13.6118Z" fill="white"/>
<path d="M172.149 14.1438H177.051V33.1438H172.149V30.9018C170.781 32.6118 168.729 33.6758 165.955 33.6758C160.901 33.6758 156.721 29.3058 156.721 23.6438C156.721 17.9818 160.901 13.6118 165.955 13.6118C168.729 13.6118 170.781 14.6758 172.149 16.3858V14.1438ZM166.867 29.0018C169.907 29.0018 172.149 26.8358 172.149 23.6438C172.149 20.4518 169.907 18.2858 166.867 18.2858C163.865 18.2858 161.623 20.4518 161.623 23.6438C161.623 26.8358 163.865 29.0018 166.867 29.0018Z" fill="white"/>
<path d="M144.98 13.6118C150.072 13.6118 154.252 17.9818 154.252 23.6438C154.252 29.3058 150.072 33.6758 144.98 33.6758C142.206 33.6758 140.192 32.6498 138.824 30.9018V40.7438H133.922V14.1438H138.824V16.3858C140.192 14.6378 142.206 13.6118 144.98 13.6118ZM144.068 29.0018C147.108 29.0018 149.35 26.8358 149.35 23.6438C149.35 20.4518 147.108 18.2858 144.068 18.2858C141.066 18.2858 138.824 20.4518 138.824 23.6438C138.824 26.8358 141.066 29.0018 144.068 29.0018Z" fill="white"/>
<path d="M122.576 13.6118C126.908 13.6118 129.758 16.6898 129.758 21.4398V33.1438H124.856V21.7818C124.856 19.5398 123.716 18.1718 121.664 18.1718C119.498 18.1718 118.13 19.6158 118.13 22.4658V33.1438H113.228V21.7818C113.228 19.5398 112.088 18.1718 110.036 18.1718C107.946 18.1718 106.464 19.6158 106.464 22.4658V33.1438H101.562V14.1438H106.464V16.1578C107.528 14.5618 109.314 13.6118 111.746 13.6118C114.102 13.6118 115.85 14.5998 116.914 16.3478C118.092 14.6378 119.992 13.6118 122.576 13.6118Z" fill="white"/>
<path d="M88.0436 33.6758C82.4576 33.6758 78.0116 29.3058 78.0116 23.6438C78.0116 17.9818 82.4576 13.6118 88.0436 13.6118C93.6296 13.6118 98.1136 17.9818 98.1136 23.6438C98.1136 29.3058 93.6296 33.6758 88.0436 33.6758ZM88.0436 28.8878C90.9696 28.8878 93.2116 26.7218 93.2116 23.6438C93.2116 20.5658 90.9696 18.3998 88.0436 18.3998C85.1556 18.3998 82.9136 20.5658 82.9136 23.6438C82.9136 26.7218 85.1556 28.8878 88.0436 28.8878Z" fill="white"/>
<path d="M68.1159 33.6758C62.3399 33.6758 58.0839 29.3058 58.0839 23.6438C58.0839 17.9818 62.3399 13.6118 68.1159 13.6118C71.8399 13.6118 75.0699 15.5878 76.6279 18.5138L72.4099 20.9838C71.6499 19.4258 70.0159 18.4378 68.0779 18.4378C65.1519 18.4378 62.9859 20.6038 62.9859 23.6438C62.9859 26.6458 65.1519 28.8118 68.0779 28.8118C70.0539 28.8118 71.6879 27.8618 72.4479 26.3038L76.7039 28.7358C75.0699 31.6998 71.8399 33.6758 68.1159 33.6758Z" fill="white"/>
<path fill-rule="evenodd" clip-rule="evenodd" d="M16.2496 3.04785C14.61 3.04785 13.2809 4.37697 13.2809 6.01652L13.2809 15.2889L3.83757 15.2889C2.19802 15.2889 0.868896 16.618 0.868896 18.2575L0.868896 40.1456C0.868896 41.7852 2.19802 43.1143 3.83757 43.1143H25.4656C27.1052 43.1143 28.4343 41.7852 28.4343 40.1456L28.4343 30.8733H37.8776C39.5172 30.8733 40.8463 29.5442 40.8463 27.9046L40.8463 6.01652C40.8463 4.37697 39.5172 3.04785 37.8776 3.04785L16.2496 3.04785ZM28.4343 30.8733V18.2575C28.4343 16.618 27.1052 15.2889 25.4656 15.2889H13.2809L13.2809 27.9046C13.2809 29.5442 14.61 30.8733 16.2496 30.8733L28.4343 30.8733Z" fill="white"/>
</svg>
