<svg width="180" height="41" viewBox="0 0 180 41" fill="none" xmlns="http://www.w3.org/2000/svg">
<path d="M168.523 12.8047C173.347 12.8047 177.307 16.9447 177.307 22.3087C177.307 27.6727 173.347 31.8127 168.523 31.8127C165.895 31.8127 163.987 30.8407 162.691 29.1847V38.5087H158.047V13.3087H162.691V15.4327C163.987 13.7767 165.895 12.8047 168.523 12.8047ZM167.659 27.3847C170.539 27.3847 172.663 25.3327 172.663 22.3087C172.663 19.2847 170.539 17.2327 167.659 17.2327C164.815 17.2327 162.691 19.2847 162.691 22.3087C162.691 25.3327 164.815 27.3847 167.659 27.3847Z" fill="white"/>
<path d="M149.149 13.3088H153.793V31.3088H149.149V29.2928C148.069 30.9128 146.197 31.8128 143.785 31.8128C139.969 31.8128 136.981 29.1488 136.981 24.3608V13.3088H141.625V23.7848C141.625 26.2328 143.101 27.4928 145.189 27.4928C147.457 27.4928 149.149 26.1608 149.149 23.0288V13.3088Z" fill="white"/>
<path d="M133.714 17.7728H129.646V25.2608C129.646 27.2048 131.05 27.2408 133.714 27.0968V31.3088C127.198 32.0288 125.002 30.1208 125.002 25.2608V17.7728H121.87V13.3088H125.002V9.6728L129.646 8.2688V13.3088H133.714V17.7728Z" fill="white"/>
<path d="M114.737 16.4047C115.673 13.9567 117.941 12.9487 120.209 12.9487V18.1327C117.797 17.8447 114.737 18.9247 114.737 22.7047V31.3087H110.093V13.3087H114.737V16.4047Z" fill="white"/>
<path d="M101.238 13.3087H105.882V31.3087H101.238V29.1847C99.9422 30.8047 97.9982 31.8127 95.3702 31.8127C90.5822 31.8127 86.6222 27.6727 86.6222 22.3087C86.6222 16.9447 90.5822 12.8047 95.3702 12.8047C97.9982 12.8047 99.9422 13.8127 101.238 15.4327V13.3087ZM96.2342 27.3847C99.1142 27.3847 101.238 25.3327 101.238 22.3087C101.238 19.2847 99.1142 17.2327 96.2342 17.2327C93.3902 17.2327 91.2662 19.2847 91.2662 22.3087C91.2662 25.3327 93.3902 27.3847 96.2342 27.3847Z" fill="white"/>
<path d="M84.8464 17.7728H80.7784V25.2608C80.7784 27.2048 82.1824 27.2408 84.8464 27.0968V31.3088C78.3304 32.0288 76.1344 30.1208 76.1344 25.2608V17.7728H73.0024V13.3088H76.1344V9.6728L80.7784 8.2688V13.3088H84.8464V17.7728Z" fill="white"/>
<path d="M62.8032 18.4207C62.8032 21.0847 72.0912 19.4287 72.0912 26.0527C72.0912 29.9407 68.7072 31.8127 64.8552 31.8127C61.2552 31.8127 58.5912 30.3007 57.2952 27.5287L61.3272 25.2607C61.8312 26.7367 63.0552 27.6007 64.8552 27.6007C66.3312 27.6007 67.3392 27.0967 67.3392 26.0527C67.3392 23.4247 58.0512 24.8647 58.0512 18.5287C58.0512 14.8567 61.1832 12.8047 64.8912 12.8047C67.8072 12.8047 70.3272 14.1367 71.7312 16.6207L67.7712 18.7807C67.2312 17.6287 66.2232 16.9447 64.8912 16.9447C63.7392 16.9447 62.8032 17.4487 62.8032 18.4207Z" fill="white"/>
<path d="M14.3636 24.1341L6.23052 32.3506C5.10047 33.4923 3.25348 33.4841 2.13351 32.3326C1.03778 31.206 1.05197 29.4077 2.16533 28.2985L13.0696 17.4353C14.2503 16.259 16.1594 16.257 17.3425 17.431L22.5013 22.5498L31.1564 13.7816L25.2732 13.7816C23.7424 13.7816 22.5013 12.5406 22.5013 11.0097C22.5013 9.47881 23.7423 8.23779 25.2732 8.23779L37.7996 8.23779C39.4731 8.23779 40.8298 9.59445 40.8298 11.268V23.6812C40.8298 25.2746 39.5381 26.5663 37.9448 26.5663C36.3514 26.5663 35.0597 25.2746 35.0597 23.6812L35.0597 17.798L25.0222 27.7903C23.6211 29.1851 21.3623 29.2049 19.9369 27.8348L16.065 24.113C15.5874 23.6539 14.8297 23.6633 14.3636 24.1341Z" fill="white"/>
</svg>
