<svg width="194" height="47" viewBox="0 0 194 47" fill="none" xmlns="http://www.w3.org/2000/svg">
<path d="M181.932 36.0552C179.93 36.0552 178.174 35.63 176.665 34.7795C175.156 33.9016 173.99 32.6807 173.167 31.1169C172.344 29.5531 171.932 27.7149 171.932 25.6024C171.932 23.5174 172.344 21.6929 173.167 20.1292C173.99 18.5379 175.156 17.3033 176.665 16.4254C178.174 15.5201 179.93 15.0674 181.932 15.0674C183.963 15.0674 185.718 15.5201 187.2 16.4254C188.709 17.3308 189.875 18.5791 190.698 20.1703C191.521 21.7341 191.933 23.5311 191.933 25.5613C191.933 25.8631 191.919 26.1649 191.891 26.4667C191.891 26.741 191.864 26.9742 191.809 27.1662H176.336V23.1333H187.735L186.912 25.0675C186.912 23.3665 186.5 21.981 185.677 20.9111C184.882 19.8411 183.633 19.3061 181.932 19.3061C180.451 19.3061 179.258 19.7725 178.352 20.7053C177.447 21.6106 176.994 22.8315 176.994 24.3679V26.549C176.994 28.1676 177.447 29.4434 178.352 30.3761C179.285 31.2815 180.547 31.7342 182.138 31.7342C183.537 31.7342 184.635 31.4461 185.43 30.87C186.226 30.2938 186.912 29.5805 187.488 28.73L191.233 30.87C190.328 32.5435 189.093 33.833 187.529 34.7383C185.993 35.6162 184.127 36.0552 181.932 36.0552Z" fill="white"/>
<path d="M163.374 15.5201L164.732 21.0757V35.6437H159.341V15.5201H163.374ZM163.621 23.8329L162.634 23.3802V19.2649L163.004 18.8123C163.306 18.3184 163.758 17.7835 164.362 17.2073C164.993 16.6312 165.706 16.1373 166.502 15.7258C167.325 15.2869 168.175 15.0674 169.053 15.0674C169.492 15.0674 169.89 15.0948 170.247 15.1497C170.603 15.2046 170.878 15.3006 171.07 15.4378V20.3349H169.753C167.97 20.3349 166.598 20.623 165.638 21.1991C164.677 21.7478 164.005 22.6257 163.621 23.8329Z" fill="white"/>
<path d="M143.262 36.1377C141.753 36.1377 140.546 35.9045 139.64 35.4381C138.735 34.9717 138.035 34.3544 137.541 33.5863C137.075 32.7906 136.76 31.8853 136.595 30.8702C136.43 29.8551 136.348 28.7988 136.348 27.7014V15.5203H141.739V27.7426C141.739 28.9772 142 29.8002 142.521 30.2117C143.07 30.6233 143.714 30.829 144.455 30.829C145.141 30.829 145.827 30.7056 146.513 30.4587C147.199 30.2117 147.843 29.8551 148.447 29.3887C149.078 28.8949 149.599 28.3324 150.011 27.7014L150.669 30.541H149.352V15.5203H154.743V35.6439H150.71L149.599 31.8167L151.328 31.8578C150.642 32.6535 149.86 33.3805 148.982 34.0389C148.131 34.6974 147.212 35.2186 146.225 35.6027C145.264 35.9594 144.277 36.1377 143.262 36.1377Z" fill="white"/>
<path d="M129.238 36.0141C127.181 36.0141 125.548 35.4792 124.341 34.4092C123.161 33.3118 122.572 31.5697 122.572 29.1828V15.7671L122.489 15.5201L123.6 10.7876H127.963V28.3186C127.963 29.1965 128.168 29.8412 128.58 30.2528C129.019 30.6369 129.568 30.8289 130.226 30.8289C130.665 30.8289 131.063 30.8015 131.419 30.7466C131.776 30.6643 132.092 30.582 132.366 30.4997V35.5203C131.927 35.6849 131.461 35.8084 130.967 35.8907C130.473 35.973 129.897 36.0141 129.238 36.0141ZM119.444 20.4996V15.5201H132.366V20.4996H119.444Z" fill="white"/>
<path d="M110.234 15.0674C111.606 15.0674 112.703 15.3006 113.526 15.767C114.376 16.2334 115.007 16.8644 115.419 17.66C115.858 18.4556 116.146 19.361 116.283 20.3761C116.42 21.3637 116.489 22.3925 116.489 23.4625V35.6437H111.098V23.4214C111.098 22.1868 110.851 21.3637 110.357 20.9522C109.891 20.5407 109.287 20.3349 108.546 20.3349C107.861 20.3349 107.161 20.4721 106.448 20.7464C105.734 20.9934 105.062 21.3637 104.431 21.8576C103.828 22.324 103.306 22.8589 102.867 23.4625L102.168 20.6641H103.526V35.6437H98.1349V15.5201H102.168L103.279 19.3884L101.551 19.3061C102.264 18.483 103.073 17.756 103.979 17.125C104.911 16.494 105.899 16.0002 106.942 15.6435C107.984 15.2594 109.081 15.0674 110.234 15.0674Z" fill="white"/>
<path d="M84.8381 36.0552C82.8353 36.0552 81.0795 35.63 79.5706 34.7795C78.0616 33.9016 76.8956 32.6807 76.0726 31.1169C75.2495 29.5531 74.838 27.7149 74.838 25.6024C74.838 23.5174 75.2495 21.6929 76.0726 20.1292C76.8956 18.5379 78.0616 17.3033 79.5706 16.4254C81.0795 15.5201 82.8353 15.0674 84.8381 15.0674C86.8683 15.0674 88.6241 15.5201 90.1056 16.4254C91.6146 17.3308 92.7805 18.5791 93.6036 20.1703C94.4266 21.7341 94.8382 23.5311 94.8382 25.5613C94.8382 25.8631 94.8245 26.1649 94.797 26.4667C94.797 26.741 94.7696 26.9742 94.7147 27.1662H79.2413V23.1333H90.6406L89.8176 25.0675C89.8176 23.3665 89.406 21.981 88.583 20.9111C87.7874 19.8411 86.5391 19.3061 84.8381 19.3061C83.3566 19.3061 82.1632 19.7725 81.2578 20.7053C80.3525 21.6106 79.8998 22.8315 79.8998 24.3679V26.549C79.8998 28.1676 80.3525 29.4434 81.2578 30.3761C82.1906 31.2815 83.4526 31.7342 85.0439 31.7342C86.443 31.7342 87.5404 31.4461 88.3361 30.87C89.1317 30.2938 89.8176 29.5805 90.3937 28.73L94.1386 30.87C93.2332 32.5435 91.9986 33.833 90.4348 34.7383C88.8985 35.6162 87.0329 36.0552 84.8381 36.0552Z" fill="white"/>
<path d="M74.0131 15.5203L66.6468 35.6439H61.4615L53.7249 15.5203H59.4039L64.6714 30.9113H63.3957L68.4575 15.5203H74.0131Z" fill="white"/>
<path fill-rule="evenodd" clip-rule="evenodd" d="M14.9983 3.6438C14.297 3.6438 13.7285 4.21233 13.7285 4.91364L13.7285 16.9771C6.36468 16.9771 0.395142 22.9467 0.395142 30.3105C0.395142 37.6743 6.36467 43.6438 13.7285 43.6438L25.792 43.6438C26.4933 43.6438 27.0618 43.0753 27.0618 42.374L27.0618 30.3105C34.4256 30.3105 40.3951 24.3409 40.3951 16.9771C40.3951 9.61333 34.4256 3.6438 27.0618 3.6438L14.9983 3.6438ZM27.0618 30.3105L27.0618 18.247C27.0618 17.5457 26.4933 16.9771 25.792 16.9771H13.7285L13.7285 29.0406C13.7285 29.7419 14.297 30.3105 14.9983 30.3105L27.0618 30.3105Z" fill="white"/>
<path d="M14.8553 3.6438C14.233 3.6438 13.7285 4.14827 13.7285 4.77056L13.7285 16.9771H25.9351C26.5574 16.9771 27.0618 17.4816 27.0618 18.1039L27.0618 30.3105C34.4256 30.3105 40.3952 24.3409 40.3952 16.9771C40.3952 9.61333 34.4257 3.6438 27.0619 3.6438H14.8553Z" fill="white"/>
</svg>
